<?xml version="1.0" standalone="no"?><!DOCTYPE svg PUBLIC "-//W3C//DTD SVG 1.1//EN" "http://www.w3.org/Graphics/SVG/1.1/DTD/svg11.dtd"><svg height="1024" node-id="1" sillyvg="true" template-height="1024" template-width="1024" version="1.1" viewBox="0 0 1024 1024" width="1024" xmlns="http://www.w3.org/2000/svg" xmlns:xlink="http://www.w3.org/1999/xlink"><defs node-id="168"><linearGradient gradientTransform="matrix(0 460.09 -256.05 0 -209657.8281 293318.9062)" gradientUnits="userSpaceOnUse" id="SVGID_1_" node-id="20" spreadMethod="pad" x1="-636.6754" x2="-636.0795" y1="-821.6942" y2="-821.6942"><stop offset="0" stop-color="#ffca80"></stop><stop offset="1" stop-color="#d46e11"></stop></linearGradient><linearGradient gradientTransform="matrix(0 140.36 -37.65 0 -29918.3789 90207.3594)" gradientUnits="userSpaceOnUse" id="SVGID_2_" node-id="24" spreadMethod="pad" x1="-638.7273" x2="-638.1315" y1="-815.1958" y2="-815.1958"><stop offset="0" stop-color="#ffffff"></stop><stop offset="1" stop-color="#cceeff"></stop></linearGradient><linearGradient gradientTransform="matrix(0 460.09 -214.08 0 -174837.7969 293318.9062)" gradientUnits="userSpaceOnUse" id="SVGID_3_" node-id="28" spreadMethod="pad" x1="-636.6754" x2="-636.0795" y1="-820.9807" y2="-820.9807"><stop offset="0" stop-color="#ffdba9"></stop><stop offset="1" stop-color="#d78842"></stop></linearGradient><linearGradient gradientTransform="matrix(0 110.43 -50.42 0 -40102.1953 70906.2031)" gradientUnits="userSpaceOnUse" id="SVGID_4_" node-id="32" spreadMethod="pad" x1="-638.4826" x2="-637.8868" y1="-814.4769" y2="-814.4769"><stop offset="0" stop-color="#ffffff"></stop><stop offset="1" stop-color="#cceeff"></stop></linearGradient><linearGradient gradientTransform="matrix(0 454.94 -256.05 0 -209706.0156 290490.875)" gradientUnits="userSpaceOnUse" id="SVGID_5_" node-id="37" spreadMethod="pad" x1="-637.0757" x2="-636.4799" y1="-821.7705" y2="-821.7705"><stop offset="0" stop-color="#ffca80"></stop><stop offset="1" stop-color="#d46e11"></stop></linearGradient><linearGradient gradientTransform="matrix(0 140.36 -37.65 0 -29966.5664 90655.3594)" gradientUnits="userSpaceOnUse" id="SVGID_6_" node-id="41" spreadMethod="pad" x1="-640.0294" x2="-639.4335" y1="-815.7159" y2="-815.7159"><stop offset="0" stop-color="#ffffff"></stop><stop offset="1" stop-color="#cceeff"></stop></linearGradient><linearGradient gradientTransform="matrix(0 363.79 -162.32 0 -132335.5156 232510.6875)" gradientUnits="userSpaceOnUse" id="SVGID_7_" node-id="45" spreadMethod="pad" x1="-637.3283" x2="-636.7325" y1="-820.6312" y2="-820.6312"><stop offset="0" stop-color="#ffdba9"></stop><stop offset="1" stop-color="#d78842"></stop></linearGradient><linearGradient gradientTransform="matrix(0 49.84 -22.54 0 -17247.5742 32813.0156)" gradientUnits="userSpaceOnUse" id="SVGID_8_" node-id="49" spreadMethod="pad" x1="-645.0031" x2="-644.4072" y1="-805.8105" y2="-805.8105"><stop offset="0" stop-color="#ffffff"></stop><stop offset="1" stop-color="#cceeff"></stop></linearGradient><linearGradient gradientTransform="matrix(7.4 119.91 -119.91 7.4 -93059.6016 83332.4062)" gradientUnits="userSpaceOnUse" id="SVGID_9_" node-id="55" spreadMethod="pad" x1="-639.3604" x2="-638.7645" y1="-821.1454" y2="-821.1454"><stop offset="0" stop-color="#ffc6b8"></stop><stop offset="0.46" stop-color="#ffb8a6"></stop><stop offset="1" stop-color="#ff9678"></stop></linearGradient><linearGradient gradientTransform="matrix(-133.76 502.72 -647.77 -103.81 -617382.9375 235063.3125)" gradientUnits="userSpaceOnUse" id="SVGID_10_" node-id="60" spreadMethod="pad" x1="-636.601" x2="-636.0052" y1="-822.4787" y2="-822.5284"><stop offset="0" stop-color="#ffc44c"></stop><stop offset="1" stop-color="#ff8618"></stop></linearGradient><linearGradient gradientTransform="matrix(-32.46 71.9 -207.87 -93.84 -190709.4375 -30567.3301)" gradientUnits="userSpaceOnUse" id="SVGID_11_" node-id="65" spreadMethod="pad" x1="-639.0161" x2="-638.4203" y1="-821.132" y2="-821.132"><stop offset="0" stop-color="#ff6666"></stop><stop offset="1" stop-color="#f4256b"></stop></linearGradient><linearGradient gradientTransform="matrix(-32.65 72.32 -23.72 -10.71 -39221.168 38147.1836)" gradientUnits="userSpaceOnUse" id="SVGID_12_" node-id="69" spreadMethod="pad" x1="-638.9211" x2="-638.3418" y1="-806.5709" y2="-806.5709"><stop offset="0" stop-color="#396fc6"></stop><stop offset="1" stop-color="#1f4b93"></stop></linearGradient><linearGradient gradientTransform="matrix(-2.27 90.96 -90.96 -2.27 -75436.5547 57059.0117)" gradientUnits="userSpaceOnUse" id="SVGID_13_" node-id="74" spreadMethod="pad" x1="-640.8275" x2="-640.2317" y1="-820.5281" y2="-820.5281"><stop offset="0" stop-color="#ff6666"></stop><stop offset="1" stop-color="#f4256b"></stop></linearGradient><linearGradient gradientTransform="matrix(22.19 14.2 -16.08 25.13 1678.587 30879.4473)" gradientUnits="userSpaceOnUse" id="SVGID_14_" node-id="78" spreadMethod="pad" x1="-651.5508" x2="-650.9544" y1="-832.8555" y2="-832.8555"><stop offset="0" stop-color="#396fc6"></stop><stop offset="1" stop-color="#1f4b93"></stop></linearGradient><linearGradient gradientTransform="matrix(8.77 96.52 -151.2 5.6 -117965.4453 67008.8281)" gradientUnits="userSpaceOnUse" id="SVGID_15_" node-id="82" spreadMethod="pad" x1="-640.3848" x2="-639.7889" y1="-821.8407" y2="-821.8242"><stop offset="0" stop-color="#ffc6b8"></stop><stop offset="0.46" stop-color="#ffb8a6"></stop><stop offset="1" stop-color="#ff9678"></stop></linearGradient><linearGradient gradientTransform="matrix(0 524.98 -749.11 0 -616082.125 334822.2812)" gradientUnits="userSpaceOnUse" id="SVGID_16_" node-id="88" spreadMethod="pad" x1="-636.7769" x2="-636.181" y1="-822.814" y2="-822.814"><stop offset="0" stop-color="#ff6666"></stop><stop offset="1" stop-color="#f4256b"></stop></linearGradient><linearGradient gradientTransform="matrix(0 323.49 -659.32 0 -542259.1875 206323.7656)" gradientUnits="userSpaceOnUse" id="SVGID_17_" node-id="92" spreadMethod="pad" x1="-636.7771" x2="-636.1813" y1="-822.8568" y2="-822.8568"><stop offset="0" stop-color="#ffffff"></stop><stop offset="1" stop-color="#cceeff"></stop></linearGradient><linearGradient gradientTransform="matrix(0 101.14 -307.64 0 -252835.1406 65737.625)" gradientUnits="userSpaceOnUse" id="Pants_1_" node-id="96" spreadMethod="pad" x1="-641.6653" x2="-641.0699" y1="-822.908" y2="-822.908"><stop offset="0" stop-color="#396fc6"></stop><stop offset="1" stop-color="#1f4b93"></stop></linearGradient><linearGradient gradientTransform="matrix(-8.8 57.44 -57.44 -8.8 -52575.6602 29931.7559)" gradientUnits="userSpaceOnUse" id="SVGID_18_" node-id="101" spreadMethod="pad" x1="-640.3553" x2="-639.7595" y1="-822.7161" y2="-822.7161"><stop offset="0" stop-color="#ffc44c"></stop><stop offset="1" stop-color="#ff8618"></stop></linearGradient><linearGradient gradientTransform="matrix(-3.94 58.92 -25.7 -9.02 -23322.1777 30677.5449)" gradientUnits="userSpaceOnUse" id="SVGID_19_" node-id="105" spreadMethod="pad" x1="-640.31" x2="-639.7142" y1="-822.9144" y2="-822.5835"><stop offset="0" stop-color="#ffc44c"></stop><stop offset="1" stop-color="#ff8618"></stop></linearGradient><linearGradient gradientTransform="matrix(-12.61 85.25 -61.08 -17.6 -57925.1133 40354.1953)" gradientUnits="userSpaceOnUse" id="SVGID_20_" node-id="109" spreadMethod="pad" x1="-638.9078" x2="-638.312" y1="-822.2615" y2="-822.1622"><stop offset="0" stop-color="#ffc44c"></stop><stop offset="1" stop-color="#ff8618"></stop></linearGradient><linearGradient gradientTransform="matrix(-52.02 114.87 -251.92 -23.72 -240149.2969 54153.2227)" gradientUnits="userSpaceOnUse" id="SVGID_21_" node-id="113" spreadMethod="pad" x1="-638.131" x2="-637.5352" y1="-822.5629" y2="-822.6621"><stop offset="0" stop-color="#ffc44c"></stop><stop offset="1" stop-color="#ff8618"></stop></linearGradient><linearGradient gradientTransform="matrix(-144.53 314.72 -231.96 0 -282289.5938 201241.8438)" gradientUnits="userSpaceOnUse" id="SVGID_22_" node-id="118" spreadMethod="pad" x1="-637.3677" x2="-636.7719" y1="-821.5544" y2="-821.9185"><stop offset="0" stop-color="#ffffff"></stop><stop offset="1" stop-color="#cceeff"></stop></linearGradient><linearGradient gradientTransform="matrix(-17.21 37.47 -84.94 0 -80325.0312 24867.7617)" gradientUnits="userSpaceOnUse" id="SVGID_23_" node-id="122" spreadMethod="pad" x1="-647.0621" x2="-646.4828" y1="-819.7219" y2="-819.8379"><stop offset="0" stop-color="#396fc6"></stop><stop offset="1" stop-color="#1f4b93"></stop></linearGradient><linearGradient gradientTransform="matrix(-151.06 574.11 -731.54 -118.55 -697958.25 268369.4688)" gradientUnits="userSpaceOnUse" id="SVGID_24_" node-id="127" spreadMethod="pad" x1="-636.6241" x2="-636.0448" y1="-822.8884" y2="-822.938"><stop offset="0" stop-color="#ffc44c"></stop><stop offset="1" stop-color="#ff8618"></stop></linearGradient><linearGradient gradientTransform="matrix(10.35 129.57 -178.56 7.51 -140126.8438 89763.1406)" gradientUnits="userSpaceOnUse" id="SVGID_25_" node-id="131" spreadMethod="pad" x1="-639.5992" x2="-639.0034" y1="-823.4523" y2="-823.4357"><stop offset="0" stop-color="#ffc6b8"></stop><stop offset="0.46" stop-color="#ffb8a6"></stop><stop offset="1" stop-color="#ff9678"></stop></linearGradient><linearGradient gradientTransform="matrix(-19.37 82.08 -61.86 -14.6 -63317.3164 41091.5508)" gradientUnits="userSpaceOnUse" id="SVGID_26_" node-id="136" spreadMethod="pad" x1="-640.6057" x2="-640.0264" y1="-824.3444" y2="-824.3444"><stop offset="0" stop-color="#ffffff"></stop><stop offset="1" stop-color="#cceeff"></stop></linearGradient><linearGradient gradientTransform="matrix(0 132.37 -110.58 0 -90746.8984 84592.2188)" gradientUnits="userSpaceOnUse" id="SVGID_27_" node-id="141" spreadMethod="pad" x1="-637.253" x2="-636.6572" y1="-823.2322" y2="-823.2322"><stop offset="0" stop-color="#396fc6"></stop><stop offset="1" stop-color="#1f4b93"></stop></linearGradient><linearGradient gradientTransform="matrix(2.43 278.89 -278.89 2.43 -227609.2031 179807.125)" gradientUnits="userSpaceOnUse" id="SVGID_28_" node-id="145" spreadMethod="pad" x1="-636.7098" x2="-636.114" y1="-822.83" y2="-822.83"><stop offset="0" stop-color="#ffc6b8"></stop><stop offset="0.46" stop-color="#ffb8a6"></stop><stop offset="1" stop-color="#ff9678"></stop></linearGradient><linearGradient gradientTransform="matrix(-20.74 138.01 -302.69 -45.49 -261953.7344 50629.0547)" gradientUnits="userSpaceOnUse" id="SVGID_29_" node-id="151" spreadMethod="pad" x1="-636.8686" x2="-636.2728" y1="-822.8317" y2="-822.8317"><stop offset="0" stop-color="#ff6666"></stop><stop offset="1" stop-color="#f4256b"></stop></linearGradient><linearGradient gradientTransform="matrix(-21.47 142.89 -100.18 -15.06 -95697.3047 78789.0625)" gradientUnits="userSpaceOnUse" id="SVGID_30_" node-id="155" spreadMethod="pad" x1="-636.7784" x2="-636.1826" y1="-822.4849" y2="-822.4849"><stop offset="0" stop-color="#ffffff"></stop><stop offset="1" stop-color="#cceeff"></stop></linearGradient><linearGradient gradientTransform="matrix(-80.71 26.63 -362.11 -62.42 -348841.25 -34034.4961)" gradientUnits="userSpaceOnUse" id="SVGID_31_" node-id="159" spreadMethod="pad" x1="-639.7992" x2="-639.2034" y1="-821.8066" y2="-821.939"><stop offset="0" stop-color="#ffc44c"></stop><stop offset="1" stop-color="#ff8618"></stop></linearGradient><linearGradient gradientTransform="matrix(-42.79 -6.82 6.82 -42.79 -21280.2324 -38925.1367)" gradientUnits="userSpaceOnUse" id="SVGID_32_" node-id="163" spreadMethod="pad" x1="-635.5341" x2="-634.9548" y1="-817.2744" y2="-817.2744"><stop offset="0" stop-color="#ff653f"></stop><stop offset="1" stop-color="#ff7a55"></stop></linearGradient></defs><g node-id="492"><g node-id="493"><path d="M 692.80 796.20 C 655.50 818.30 605.00 866.00 629.90 910.80 C 649.50 945.90 745.80 921.90 771.80 905.20 C 816.90 876.30 858.80 823.20 830.80 788.00 C 807.90 759.20 732.50 772.70 692.80 796.20 Z M 64.90 713.60 C 111.60 809.60 264.70 906.70 421.00 899.00 C 577.30 891.20 589.70 816.30 683.50 764.20 C 782.10 709.40 917.10 751.60 978.00 587.50 C 1038.80 423.40 971.30 206.20 769.40 128.00 C 567.50 49.80 345.90 126.30 246.10 202.60 C 85.10 325.80 -44.20 489.60 64.90 713.60 Z" fill="#b3d8ff" fill-rule="evenodd" group-id="1,2" node-id="380" stroke="none" target-height="896.10004" target-width="1083" target-x="-44.2" target-y="49.8"></path><path d="M 368.10 413.50 L 547.90 413.50 L 547.90 526.60 L 368.10 526.60 Z" fill="#80c0ff" fill-rule="nonzero" group-id="1,2" node-id="382" stroke="none" target-height="113.099976" target-width="179.80002" target-x="368.1" target-y="413.5"></path><path d="M 434.00 413.50 L 481.90 413.50 L 481.90 443.60 L 434.00 443.60 Z" fill="#ebf5ff" fill-rule="nonzero" group-id="1,2" node-id="384" stroke="none" target-height="30.100006" target-width="47.899994" target-x="434" target-y="413.5"></path><path d="M 102.10 526.60 L 25.60 526.60 C 29.10 487.30 39.90 448.90 57.40 413.50 L 102.10 413.50 L 102.10 526.60 Z" fill="#80c0ff" fill-rule="evenodd" group-id="1,2" node-id="386" stroke="none" target-height="113.099976" target-width="76.5" target-x="25.6" target-y="413.5"></path><path d="M 368.10 544.10 L 547.90 544.10 L 547.90 743.30 L 368.10 743.30 Z" fill="#80c0ff" fill-rule="nonzero" group-id="1,2" node-id="388" stroke="none" target-height="199.20001" target-width="179.80002" target-x="368.1" target-y="544.1"></path><path d="M 102.10 743.40 L 82.80 743.40 C 76.00 733.90 70.00 724.00 64.90 713.60 C 35.30 652.80 23.30 596.50 24.60 544.20 L 102.00 544.20 L 102.00 743.40 Z" fill="#80c0ff" fill-rule="evenodd" group-id="1,2" node-id="390" stroke="none" target-height="199.20001" target-width="78.8" target-x="23.3" target-y="544.2"></path><path d="M 588.00 95.20 C 603.30 95.20 618.70 95.80 634.20 97.10 L 634.20 303.80 L 962.50 303.80 C 969.10 317.30 974.80 331.30 979.70 345.50 L 634.20 345.50 L 634.20 743.30 L 735.80 743.30 C 717.60 748.20 700.10 755.20 683.50 764.10 C 663.60 775.30 644.90 788.60 627.80 803.60 L 140.40 803.60 C 118.60 786.10 99.20 765.80 82.80 743.30 L 177.80 743.30 L 177.80 345.60 L 99.20 345.60 C 109.90 331.30 121.40 317.50 133.70 303.90 L 177.70 303.90 L 177.70 259.80 C 192.60 246.10 208.00 232.90 223.90 220.10 L 223.90 303.90 L 588.00 303.90 L 588.00 95.20 L 588.00 95.20 Z M 681.10 803.70 C 685.10 801.00 689.00 798.40 692.80 796.20 C 732.50 772.70 807.90 759.30 830.80 788.00 C 834.50 792.60 837.20 798.00 838.60 803.70 L 681.10 803.70 Z M 588.00 345.60 L 224.00 345.60 L 224.00 743.40 L 588.00 743.40 L 588.00 345.60 Z" fill="#ebf5ff" fill-rule="evenodd" group-id="1,2" node-id="392" stroke="none" target-height="708.5" target-width="896.9" target-x="82.8" target-y="95.2"></path><path d="M 838.60 803.70 C 847.00 837.50 810.50 880.30 771.80 905.20 C 745.80 921.90 649.50 945.90 629.90 910.80 C 607.50 870.60 646.00 828.00 681.10 803.70 L 838.60 803.70 Z M 627.70 803.70 C 575.70 847.90 540.30 893.10 420.90 899.00 C 315.30 904.20 211.20 861.50 140.30 803.70 L 627.70 803.70 Z" fill="#b3d8ff" fill-rule="evenodd" group-id="1,2" node-id="394" stroke="none" target-height="142.20001" target-width="706.7" target-x="140.3" target-y="803.7"></path><path d="M 675.60 190.70 L 855.40 190.70 L 855.40 303.80 L 675.60 303.80 Z" fill="#80c0ff" fill-rule="nonzero" group-id="1,2" node-id="396" stroke="none" target-height="113.09999" target-width="179.80005" target-x="675.6" target-y="190.7"></path><path d="M 741.60 190.70 L 789.50 190.70 L 789.50 220.80 L 741.60 220.80 Z" fill="#ebf5ff" fill-rule="nonzero" group-id="1,2" node-id="398" stroke="none" target-height="30.100006" target-width="47.900024" target-x="741.6" target-y="190.7"></path><path d="M 368.10 190.70 L 547.90 190.70 L 547.90 303.80 L 368.10 303.80 Z" fill="#80c0ff" fill-rule="nonzero" group-id="1,2" node-id="400" stroke="none" target-height="113.09999" target-width="179.80002" target-x="368.1" target-y="190.7"></path><path d="M 434.00 190.70 L 481.90 190.70 L 481.90 220.80 L 434.00 220.80 Z" fill="#ebf5ff" fill-rule="nonzero" group-id="1,2" node-id="402" stroke="none" target-height="30.100006" target-width="47.899994" target-x="434" target-y="190.7"></path></g><g node-id="494"><path d="M 845.50 400.00 L 637.90 400.00 C 632.70 400.00 628.40 404.20 628.40 409.50 C 628.40 409.50 628.40 409.50 628.40 409.50 L 628.40 665.90 L 845.60 665.90 L 845.60 400.00 Z" fill="url(#SVGID_1_)" fill-rule="evenodd" group-id="1,3" node-id="406" stroke="none" target-height="265.90002" target-width="217.19995" target-x="628.4" target-y="400"></path><path d="M 800.40 557.60 C 800.40 556.10 799.20 554.90 797.70 554.90 L 749.70 554.90 C 748.20 554.90 747.00 556.10 747.00 557.60 L 747.00 626.40 C 747.00 627.90 748.20 629.10 749.70 629.10 L 797.70 629.10 C 799.20 629.10 800.40 627.90 800.40 626.40 L 800.40 557.60 Z" fill="url(#SVGID_2_)" fill-rule="evenodd" group-id="1,3" node-id="408" stroke="none" target-height="74.19995" target-width="53.400024" target-x="747" target-y="554.9"></path><path d="M 993.70 400.00 C 1005.00 463.50 999.70 528.90 978.00 587.60 C 965.40 621.70 949.50 646.90 931.40 666.00 L 845.60 666.00 C 840.40 666.00 836.10 661.70 836.10 656.50 L 836.10 409.40 C 836.10 404.20 840.40 399.90 845.60 399.90 L 993.70 400.00 Z" fill="url(#SVGID_3_)" fill-rule="evenodd" group-id="1,3" node-id="410" stroke="none" target-height="266.1" target-width="168.90002" target-x="836.1" target-y="399.9"></path><path d="M 993.70 400.00 C 997.10 419.30 999.00 438.80 999.40 458.40 L 934.00 458.40 C 930.70 458.40 928.10 455.70 928.10 452.50 C 928.10 452.50 928.10 452.50 928.10 452.50 L 928.10 400.00 L 993.70 400.00 Z" fill="url(#SVGID_4_)" fill-rule="evenodd" group-id="1,3" node-id="412" stroke="none" target-height="58.399994" target-width="71.30005" target-x="928.1" target-y="400"></path></g><g node-id="495"><path d="M 807.40 876.10 C 796.60 887.10 784.70 896.80 771.70 905.10 C 745.70 921.80 649.40 945.80 629.80 910.70 C 604.90 866.00 655.40 818.20 692.70 796.10 C 723.20 778.10 774.70 766.00 807.30 774.30 L 807.40 876.10 Z M 599.80 828.30 L 599.80 665.90 L 817.00 665.90 L 807.50 726.70 C 765.00 736.40 721.50 743.10 683.50 764.20 C 647.90 783.90 624.10 806.90 599.80 828.30 L 599.80 828.30 Z" fill="url(#SVGID_5_)" fill-rule="evenodd" group-id="1,4" node-id="416" stroke="none" target-height="279.89996" target-width="217.20001" target-x="599.8" target-y="665.9"></path><path d="M 771.80 823.60 C 771.80 822.10 770.60 820.90 769.20 820.90 L 721.20 820.90 C 719.70 820.90 718.50 822.10 718.50 823.60 L 718.50 892.50 C 718.50 894.00 719.70 895.20 721.20 895.20 L 769.20 895.20 C 770.70 895.20 771.80 894.00 771.80 892.50 L 771.80 823.60 Z" fill="url(#SVGID_6_)" fill-rule="evenodd" group-id="1,4" node-id="418" stroke="none" target-height="74.29999" target-width="53.299988" target-x="718.5" target-y="820.9"></path><path d="M 807.40 774.40 C 817.30 776.90 825.40 781.30 830.80 788.00 C 851.00 813.30 834.90 847.90 807.40 876.10 L 807.40 774.40 Z M 931.30 665.90 C 896.00 703.10 852.20 716.50 807.40 726.70 L 807.40 675.40 C 807.40 670.20 811.60 665.90 816.90 665.90 L 931.30 665.90 Z" fill="url(#SVGID_7_)" fill-rule="evenodd" group-id="1,4" node-id="420" stroke="none" target-height="210.19995" target-width="123.89996" target-x="807.4" target-y="665.9"></path><path d="M 931.30 665.90 C 921.80 675.90 911.10 684.80 899.40 692.20 L 899.40 665.90 L 931.30 665.90 Z" fill="url(#SVGID_8_)" fill-rule="evenodd" group-id="1,4" node-id="422" stroke="none" target-height="26.299988" target-width="31.899963" target-x="899.4" target-y="665.9"></path></g><g node-id="496"><g node-id="497"><path d="M 630.70 604.00 L 662.70 581.60 C 668.50 577.60 676.00 576.90 682.40 579.90 L 708.80 592.20 C 719.70 597.30 724.40 610.30 719.40 621.20 C 719.30 621.40 719.20 621.70 719.10 621.90 C 712.00 635.70 703.00 653.50 697.00 665.10 C 693.20 672.40 685.70 677.10 677.40 677.10 L 630.80 677.10 L 630.80 604.00 Z" fill="url(#SVGID_9_)" fill-rule="evenodd" group-id="1,5,6" node-id="427" stroke="none" target-height="100.19995" target-width="93.70001" target-x="630.7" target-y="576.9"></path><path d="M 630.70 676.90 L 457.00 724.70 L 420.30 409.30 L 435.50 413.90 C 453.10 419.20 466.90 432.90 472.40 450.40 C 488.30 501.30 520.40 603.80 520.40 603.80 L 630.70 603.80 L 630.70 676.90 L 630.70 676.90 Z" fill="url(#SVGID_10_)" fill-rule="evenodd" group-id="1,5,6" node-id="429" stroke="none" target-height="315.40002" target-width="210.40002" target-x="420.3" target-y="409.3"></path><g node-id="503"><path d="M 763.80 568.40 L 682.00 531.40 C 677.90 529.60 673.00 531.40 671.10 535.50 C 667.50 543.40 662.00 555.70 658.50 563.50 C 656.70 567.60 658.50 572.50 662.60 574.40 L 744.40 611.40 L 763.80 568.40 Z" fill="url(#SVGID_11_)" fill-rule="evenodd" group-id="1,5,6,12" node-id="432" stroke="none" target-height="81.80005" target-width="107.099976" target-x="656.7" target-y="529.6"></path><path d="M 780.90 585.20 C 782.80 581.00 780.90 576.20 776.80 574.30 L 763.80 568.50 L 744.40 611.50 L 757.40 617.30 C 761.50 619.10 766.40 617.30 768.30 613.20 C 771.80 605.30 777.40 593.00 780.90 585.20 L 780.90 585.20 Z" fill="url(#SVGID_12_)" fill-rule="evenodd" group-id="1,5,6,12" node-id="434" stroke="none" target-height="50.599976" target-width="38.399963" target-x="744.4" target-y="568.5"></path></g><g node-id="504"><path d="M 659.30 616.90 L 619.20 679.60 C 618.40 680.90 618.10 682.40 618.40 683.90 C 618.70 685.40 619.60 686.70 620.90 687.50 L 639.00 699.10 C 640.30 699.90 641.80 700.20 643.30 699.90 C 644.80 699.60 646.10 698.70 646.90 697.40 L 687.00 634.70 L 659.30 616.90 L 659.30 616.90 Z" fill="url(#SVGID_13_)" fill-rule="evenodd" group-id="1,5,6,13" node-id="438" stroke="none" target-height="83.29999" target-width="68.900024" target-x="618.1" target-y="616.9"></path><path d="M 623.40 689.10 L 612.40 706.30 C 610.80 708.80 611.50 712.10 614.00 713.70 C 614.00 713.70 614.00 713.70 614.00 713.70 L 618.20 716.40 C 620.70 718.00 624.00 717.20 625.60 714.80 C 625.60 714.80 625.60 714.80 625.60 714.80 L 636.60 697.70 L 623.40 689.10 L 623.40 689.10 Z" fill="url(#SVGID_14_)" fill-rule="evenodd" group-id="1,5,6,13" node-id="440" stroke="none" target-height="28.900024" target-width="25.799988" target-x="610.8" target-y="689.1"></path></g><path d="M 708.90 595.50 L 701.90 603.80 C 699.40 606.80 695.50 608.30 691.60 607.80 L 671.10 605.10 C 665.90 604.40 660.80 606.80 658.00 611.20 L 643.50 634.00 C 638.00 642.60 640.50 654.00 649.10 659.50 C 650.40 660.40 651.90 661.00 653.40 661.50 L 682.10 670.80 C 687.90 672.70 694.20 670.00 697.00 664.60 L 722.20 615.30 C 725.20 609.40 722.90 602.20 717.00 599.30 C 716.80 599.20 716.70 599.10 716.50 599.10 L 708.90 595.50 L 708.90 595.50 Z" fill="url(#SVGID_15_)" fill-rule="evenodd" group-id="1,5,6" node-id="443" stroke="none" target-height="77.20001" target-width="87.20001" target-x="638" target-y="595.5"></path></g><g node-id="498"><path d="M 457.00 839.20 L 191.50 839.20 C 171.60 827.50 152.70 814.10 135.00 799.20 L 135.00 575.80 L 136.10 525.10 L 457.00 525.10 L 457.00 839.20 Z" fill="url(#SVGID_16_)" fill-rule="evenodd" group-id="1,5,7" node-id="447" stroke="none" target-height="314.10004" target-width="322" target-x="135" target-y="525.1"></path><path d="M 457.00 525.10 L 457.00 449.00 C 457.00 432.10 445.90 417.10 429.70 412.30 L 335.10 383.80 L 224.70 385.80 L 119.10 421.30 C 99.30 428.00 84.30 444.40 79.50 464.70 C 77.80 472.10 76.40 477.80 76.40 477.80 L 76.40 525.00 L 457.00 525.10 Z" fill="url(#SVGID_17_)" fill-rule="evenodd" group-id="1,5,7" node-id="449" stroke="none" target-height="141.29999" target-width="380.6" target-x="76.4" target-y="383.8"></path></g><path d="M 191.50 839.20 L 457.00 839.20 L 457.00 895.70 C 445.90 897.20 433.80 898.30 420.90 899.00 C 338.60 903.10 257.00 878.00 191.50 839.20 Z" fill="url(#Pants_1_)" fill-rule="evenodd" group-id="1,5" id="Pants" node-id="99" stroke="none" target-height="63.899963" target-width="265.5" target-x="191.5" target-y="839.2"></path><path d="M 328.10 420.50 L 296.10 413.50 L 303.40 403.00 L 328.10 420.50 Z" fill="url(#SVGID_18_)" fill-rule="evenodd" group-id="1,5,8" node-id="454" stroke="none" target-height="17.5" target-width="32" target-x="296.1" target-y="403"></path><path d="M 328.10 420.50 L 342.40 410.60 L 335.20 402.50 L 328.10 420.50 L 328.10 420.50 Z" fill="url(#SVGID_19_)" fill-rule="evenodd" group-id="1,5,8" node-id="456" stroke="none" target-height="18" target-width="14.299988" target-x="328.1" target-y="402.5"></path><path d="M 335.20 402.50 L 352.10 421.40 C 352.60 421.90 353.30 422.10 353.90 421.80 C 354.60 421.60 355.00 420.90 355.00 420.20 L 355.00 404.40 C 355.00 402.60 354.50 400.80 353.50 399.30 L 335.20 371.00 L 335.20 402.50 L 335.20 402.50 Z" fill="url(#SVGID_20_)" fill-rule="evenodd" group-id="1,5,8" node-id="458" stroke="none" target-height="51.100006" target-width="19.799988" target-x="335.2" target-y="371"></path><path d="M 248.90 364.40 C 247.50 363.40 245.70 363.60 244.50 364.70 L 225.20 383.30 C 223.40 385.00 223.40 387.70 225.00 389.50 C 225.10 389.70 225.30 389.80 225.50 389.90 L 277.50 431.60 C 279.50 433.20 282.50 432.90 284.20 430.80 C 284.30 430.70 284.30 430.60 284.40 430.60 C 290.40 422.00 303.50 403.00 303.50 403.00 L 248.90 364.40 L 248.90 364.40 Z" fill="url(#SVGID_21_)" fill-rule="evenodd" group-id="1,5,8" node-id="460" stroke="none" target-height="69.80002" target-width="80.100006" target-x="223.4" target-y="363.4"></path><path d="M 522.50 641.20 C 524.80 636.30 522.60 632.30 517.70 632.30 L 358.30 632.30 C 353.40 632.30 347.60 636.30 345.40 641.20 L 270.00 805.40 C 267.70 810.30 269.90 814.30 274.80 814.30 L 434.20 814.30 C 439.20 814.30 444.90 810.30 447.10 805.40 L 522.50 641.20 Z" fill="url(#SVGID_22_)" fill-rule="evenodd" group-id="1,5,9" node-id="464" stroke="none" target-height="182" target-width="257.09998" target-x="267.7" target-y="632.3"></path><path d="M 478.30 624.60 C 479.20 622.70 478.30 621.30 476.50 621.30 L 409.90 621.30 C 407.80 621.50 406.00 622.70 405.00 624.60 L 397.80 640.20 C 396.90 642.10 397.80 643.50 399.60 643.50 L 466.20 643.50 C 468.30 643.30 470.10 642.10 471.10 640.20 L 478.30 624.60 Z" fill="url(#SVGID_23_)" fill-rule="evenodd" group-id="1,5,9" node-id="466" stroke="none" target-height="22.200012" target-width="82.30002" target-x="396.9" target-y="621.3"></path><path d="M 251.40 707.70 L 138.00 661.20 L 170.90 531.80 C 180.50 494.30 164.50 454.90 131.60 434.60 L 126.00 431.10 C 117.20 425.70 105.90 426.60 98.10 433.40 L 98.10 433.40 C 89.00 441.40 82.60 452.00 79.80 463.80 C 70.50 502.90 48.20 596.90 32.10 664.80 C 22.60 704.70 47.30 744.60 87.10 754.10 C 88.70 754.50 90.20 754.80 91.80 755.10 L 251.40 782.20 L 251.40 707.70 Z" fill="url(#SVGID_24_)" fill-rule="evenodd" group-id="1,5,10" node-id="470" stroke="none" target-height="356.5" target-width="228.79999" target-x="22.6" target-y="425.7"></path><path d="M 234.70 762.10 C 235.20 773.70 244.80 782.90 256.40 782.90 L 313.00 782.90 C 318.00 782.90 322.60 779.90 324.60 775.30 L 345.00 729.20 C 347.60 723.40 345.80 716.60 340.70 712.80 L 320.60 697.70 L 329.80 677.60 L 287.30 684.50 C 285.20 684.80 283.20 685.60 281.50 686.90 L 251.50 707.90 C 238.90 717.60 233.60 735.90 234.70 762.10 L 234.70 762.10 Z" fill="url(#SVGID_25_)" fill-rule="evenodd" group-id="1,5,10" node-id="472" stroke="none" target-height="105.30005" target-width="114" target-x="233.6" target-y="677.6"></path><path d="M 109.80 547.20 C 110.60 544.00 108.60 540.70 105.30 539.90 C 105.30 539.90 105.30 539.90 105.30 539.90 L 64.00 530.20 L 52.80 577.60 L 94.20 587.30 C 97.40 588.10 100.70 586.10 101.50 582.80 C 101.50 582.80 101.50 582.80 101.50 582.80 L 109.80 547.20 Z" fill="url(#SVGID_26_)" fill-rule="evenodd" group-id="1,5,10" node-id="474" stroke="none" target-height="57.899963" target-width="57.8" target-x="52.8" target-y="530.2"></path><path d="M 261.20 318.40 C 261.20 318.40 230.80 294.40 240.20 239.70 L 333.80 240.60 L 315.10 314.40 L 261.20 318.40 Z" fill="url(#SVGID_27_)" fill-rule="evenodd" group-id="1,5,11" node-id="478" stroke="none" target-height="78.7" target-width="102.999985" target-x="230.8" target-y="239.7"></path><path d="M 311.90 270.70 C 316.50 262.70 320.30 254.30 323.20 245.60 L 399.90 250.40 C 399.90 250.40 397.50 298.20 396.60 316.30 C 396.40 320.50 393.90 324.20 390.10 325.90 L 383.50 328.90 C 383.50 328.90 381.30 339.90 379.10 351.60 C 376.20 366.70 361.50 376.50 346.40 373.60 C 346.30 373.60 346.10 373.50 346.00 373.50 L 335.20 371.20 L 335.20 402.60 L 328.10 420.60 L 246.60 362.80 L 261.20 318.40 C 270.20 315.40 278.70 310.80 286.20 304.90 C 276.00 298.70 272.80 285.50 279.00 275.30 C 285.20 265.10 298.40 261.90 308.60 268.10 C 309.80 268.90 310.90 269.80 311.90 270.70 L 311.90 270.70 Z" fill="url(#SVGID_28_)" fill-rule="evenodd" group-id="1,5,11" node-id="480" stroke="none" target-height="175" target-width="153.29999" target-x="246.6" target-y="245.6"></path><path d="M 382.70 176.60 L 320.50 167.20 C 283.00 161.60 248.00 187.40 242.30 224.90 C 242.30 224.90 242.30 224.90 242.30 224.90 L 240.10 239.50 L 370.20 259.10 L 382.70 176.60 Z" fill="url(#SVGID_29_)" fill-rule="evenodd" group-id="1,5,11,14" node-id="483" stroke="none" target-height="97.5" target-width="142.6" target-x="240.1" target-y="161.6"></path><path d="M 406.00 212.70 C 408.70 195.10 396.60 178.70 379.00 176.00 C 379.00 176.00 379.00 176.00 378.90 176.00 L 378.90 176.00 C 359.10 173.00 340.20 185.30 334.90 204.60 C 328.80 226.80 321.90 251.90 321.90 251.90 L 398.40 263.50 L 406.00 212.70 Z" fill="url(#SVGID_30_)" fill-rule="evenodd" group-id="1,5,11,14" node-id="485" stroke="none" target-height="90.5" target-width="86.80002" target-x="321.9" target-y="173"></path><path d="M 440.00 269.70 C 442.00 256.60 432.90 244.30 419.80 242.30 C 419.80 242.30 419.80 242.30 419.80 242.30 L 370.30 234.90 C 352.40 232.20 334.20 238.60 322.00 251.90 L 322.00 251.90 L 440.00 269.70 Z" fill="url(#SVGID_31_)" fill-rule="evenodd" group-id="1,5,11,14" node-id="487" stroke="none" target-height="37.500015" target-width="120" target-x="322" target-y="232.2"></path><path d="M 335.20 371.10 L 311.00 366.00 C 316.40 376.10 324.90 384.30 335.20 389.20 L 335.20 371.10 Z" fill="url(#SVGID_32_)" fill-rule="evenodd" group-id="1,5,11" node-id="490" stroke="none" target-height="23.200012" target-width="24.200012" target-x="311" target-y="366"></path></g></g></svg>