<?xml version="1.0" standalone="no"?><!DOCTYPE svg PUBLIC "-//W3C//DTD SVG 1.1//EN" "http://www.w3.org/Graphics/SVG/1.1/DTD/svg11.dtd"><svg height="1024" node-id="1" sillyvg="true" template-height="1024" template-width="1024" version="1.1" viewBox="0 0 1024 1024" width="1024" xmlns="http://www.w3.org/2000/svg" xmlns:xlink="http://www.w3.org/1999/xlink"><defs node-id="390"><linearGradient gradientTransform="matrix(0 269.85 298.23 0 -141187.2344 1110069.625)" gradientUnits="userSpaceOnUse" id="SVGID_1_" node-id="24" spreadMethod="pad" x1="-4111.048" x2="-4110.4385" y1="475.9045" y2="475.9045"><stop offset="0" stop-color="#e6cbb0"></stop><stop offset="1" stop-color="#d3a77c"></stop></linearGradient><linearGradient gradientTransform="matrix(0 -36.24 15.9 0 -10421.3633 -149631.3594)" gradientUnits="userSpaceOnUse" id="SVGID_2_" node-id="28" spreadMethod="pad" x1="-4141.328" x2="-4140.6997" y1="690.4992" y2="690.4992"><stop offset="0" stop-color="#ff5133"></stop><stop offset="1" stop-color="#ffbc56"></stop></linearGradient><linearGradient gradientTransform="matrix(0 -311.07 150.55 0 -73158.8203 -1280306.75)" gradientUnits="userSpaceOnUse" id="SVGID_3_" node-id="34" spreadMethod="pad" x1="-4117.2876" x2="-4116.6587" y1="488.7099" y2="488.7099"><stop offset="0" stop-color="#ff3a23"></stop><stop offset="1" stop-color="#ff963e"></stop></linearGradient><linearGradient gradientTransform="matrix(0 87.52 -87.52 0 37525.2422 359442.25)" gradientUnits="userSpaceOnUse" id="SVGID_4_" node-id="38" spreadMethod="pad" x1="-4102.313" x2="-4101.6846" y1="422.7598" y2="422.7598"><stop offset="0" stop-color="#ffddd3"></stop><stop offset="0.54" stop-color="#ffbbaa"></stop><stop offset="1" stop-color="#ffae9a"></stop></linearGradient><linearGradient gradientTransform="matrix(0 198.74 -198.74 0 88518.0547 817701.9375)" gradientUnits="userSpaceOnUse" id="SVGID_5_" node-id="44" spreadMethod="pad" x1="-4110.2944" x2="-4109.6665" y1="444.7591" y2="444.7591"><stop offset="0" stop-color="#ff963e"></stop><stop offset="1" stop-color="#ff3a23"></stop></linearGradient><linearGradient gradientTransform="matrix(0 771.01 -771.01 0 354363.8438 3171399)" gradientUnits="userSpaceOnUse" id="SVGID_6_" node-id="48" spreadMethod="pad" x1="-4112.798" x2="-4112.188" y1="459.2982" y2="459.2982"><stop offset="0" stop-color="#2b5acc"></stop><stop offset="1" stop-color="#152873"></stop></linearGradient><linearGradient gradientTransform="matrix(0 -81.06 99.06 0 -49423.4062 -333190.625)" gradientUnits="userSpaceOnUse" id="SVGID_7_" node-id="53" spreadMethod="pad" x1="-4122.6953" x2="-4122.085" y1="502.0677" y2="502.0677"><stop offset="0" stop-color="#ff3a23"></stop><stop offset="1" stop-color="#ff963e"></stop></linearGradient><linearGradient gradientTransform="matrix(0 620.95 -620.95 0 284701.8125 2554234.25)" gradientUnits="userSpaceOnUse" id="SVGID_8_" node-id="57" spreadMethod="pad" x1="-4112.6333" x2="-4112.0234" y1="458.1016" y2="458.1016"><stop offset="0" stop-color="#2b5acc"></stop><stop offset="1" stop-color="#152873"></stop></linearGradient><linearGradient gradientTransform="matrix(0 -444.97 153.3 0 -74675.9766 -1831097.25)" gradientUnits="userSpaceOnUse" id="SVGID_9_" node-id="62" spreadMethod="pad" x1="-4116.2344" x2="-4115.6064" y1="488.868" y2="488.868"><stop offset="0" stop-color="#ff5133"></stop><stop offset="1" stop-color="#ffbc56"></stop></linearGradient><linearGradient gradientTransform="matrix(0 69.41 -69.41 0 28737.6328 284690.0625)" gradientUnits="userSpaceOnUse" id="SVGID_10_" node-id="66" spreadMethod="pad" x1="-4098.234" x2="-4097.606" y1="410.102" y2="410.102"><stop offset="0" stop-color="#ffffff"></stop><stop offset="1" stop-color="#f0e7df"></stop></linearGradient><linearGradient gradientTransform="matrix(0 143.92 -143.92 0 63342.6094 591009.875)" gradientUnits="userSpaceOnUse" id="SVGID_11_" node-id="71" spreadMethod="pad" x1="-4105.6733" x2="-4105.0635" y1="438.0738" y2="438.0738"><stop offset="0" stop-color="#2b5acc"></stop><stop offset="1" stop-color="#152873"></stop></linearGradient><linearGradient gradientTransform="matrix(0 207.39 -207.39 0 92794.9453 852206.75)" gradientUnits="userSpaceOnUse" id="SVGID_12_" node-id="75" spreadMethod="pad" x1="-4108.4565" x2="-4107.8467" y1="446.037" y2="446.037"><stop offset="0" stop-color="#ffddd3"></stop><stop offset="0.54" stop-color="#ffbbaa"></stop><stop offset="1" stop-color="#ffae9a"></stop></linearGradient><linearGradient gradientTransform="matrix(0.01433852 227.6611 -227.6611 0.01433852 102254.1016 935596.1875)" gradientUnits="userSpaceOnUse" id="SVGID_13_" node-id="80" spreadMethod="pad" x1="-4108.942" x2="-4108.332" y1="447.7903" y2="447.7903"><stop offset="0" stop-color="#ffddd3"></stop><stop offset="0.54" stop-color="#ffbbaa"></stop><stop offset="1" stop-color="#ffae9a"></stop></linearGradient><linearGradient gradientUnits="userSpaceOnUse" id="SVGID_14_" node-id="85" spreadMethod="pad" x1="178606.44" x2="178580.5" y1="19863.924" y2="19863.924"><stop offset="0" stop-color="#f58b71"></stop><stop offset="1" stop-color="#fca289"></stop></linearGradient><linearGradient gradientTransform="matrix(0 -311.07 184.34 0 -89071.2969 -1280306.75)" gradientUnits="userSpaceOnUse" id="SVGID_15_" node-id="90" spreadMethod="pad" x1="-4117.2876" x2="-4116.6587" y1="484.6846" y2="484.6846"><stop offset="0" stop-color="#ff3a23"></stop><stop offset="1" stop-color="#ff963e"></stop></linearGradient><linearGradient gradientTransform="matrix(0 32.51 205.16 0 -98439.4922 133196.8594)" gradientUnits="userSpaceOnUse" id="SVGID_16_" node-id="94" spreadMethod="pad" x1="-4082.9146" x2="-4082.305" y1="482.0521" y2="482.0521"><stop offset="0" stop-color="#2b5acc"></stop><stop offset="1" stop-color="#152873"></stop></linearGradient><linearGradient gradientTransform="matrix(0 87.52 -87.52 0 37344.1719 359438.9688)" gradientUnits="userSpaceOnUse" id="SVGID_17_" node-id="98" spreadMethod="pad" x1="-4102.289" x2="-4101.679" y1="421.969" y2="421.969"><stop offset="0" stop-color="#ffddd3"></stop><stop offset="0.54" stop-color="#ffbbaa"></stop><stop offset="1" stop-color="#ffae9a"></stop></linearGradient><linearGradient gradientTransform="matrix(91.83 342.71 362.73 -97.19 206552.7344 1454346.125)" gradientUnits="userSpaceOnUse" id="SVGID_18_" node-id="104" spreadMethod="pad" x1="-4108.6763" x2="-4108.0664" y1="472.5727" y2="472.5727"><stop offset="0" stop-color="#2b5acc"></stop><stop offset="1" stop-color="#152873"></stop></linearGradient><linearGradient gradientTransform="matrix(39.15 146.12 171.67 -46 78533.9297 621812.6875)" gradientUnits="userSpaceOnUse" id="SVGID_19_" node-id="108" spreadMethod="pad" x1="-4101.3726" x2="-4100.744" y1="481.8007" y2="481.8007"><stop offset="0" stop-color="#e1f2ff"></stop><stop offset="1" stop-color="#95d2ff"></stop></linearGradient><linearGradient gradientTransform="matrix(-93.82 362.92 -362.92 -93.82 -220258.375 1535936.625)" gradientUnits="userSpaceOnUse" id="SVGID_20_" node-id="112" spreadMethod="pad" x1="-4113.756" x2="-4113.1465" y1="454.5511" y2="454.5511"><stop offset="0" stop-color="#e1f2ff"></stop><stop offset="1" stop-color="#95d2ff"></stop></linearGradient><linearGradient gradientTransform="matrix(-60.43 139.05 -139.05 -60.43 -186943.5781 599627.5625)" gradientUnits="userSpaceOnUse" id="SVGID_21_" node-id="116" spreadMethod="pad" x1="-4117.546" x2="-4116.936" y1="440.2661" y2="440.2661"><stop offset="0" stop-color="#e1f2ff"></stop><stop offset="1" stop-color="#95d2ff"></stop></linearGradient><linearGradient gradientTransform="matrix(13.35 49.83 53.35 -14.3 27405.0684 211272.25)" gradientUnits="userSpaceOnUse" id="SVGID_22_" node-id="120" spreadMethod="pad" x1="-4079.015" x2="-4078.3862" y1="520.7543" y2="520.7543"><stop offset="0" stop-color="#2b5acc"></stop><stop offset="1" stop-color="#152873"></stop></linearGradient><linearGradient gradientTransform="matrix(8.1 30.22 148.97 -39.92 -38595.3672 142521.2344)" gradientUnits="userSpaceOnUse" id="SVGID_23_" node-id="124" spreadMethod="pad" x1="-4056.8215" x2="-4056.212" y1="484.6004" y2="484.6004"><stop offset="0" stop-color="#2b5acc"></stop><stop offset="1" stop-color="#152873"></stop></linearGradient><linearGradient gradientTransform="matrix(55.06 205.48 -205.48 55.06 318848.5 819124.25)" gradientUnits="userSpaceOnUse" id="SVGID_24_" node-id="128" spreadMethod="pad" x1="-4105.0894" x2="-4104.479" y1="449.0135" y2="449.0135"><stop offset="0" stop-color="#ffbc56"></stop><stop offset="1" stop-color="#ff5133"></stop></linearGradient><linearGradient gradientTransform="matrix(0 31.73 344.66 0 -162742.8594 130374.4688)" gradientUnits="userSpaceOnUse" id="SVGID_25_" node-id="133" spreadMethod="pad" x1="-4087.753" x2="-4087.143" y1="474.3317" y2="474.3317"><stop offset="0" stop-color="#e1f2ff"></stop><stop offset="1" stop-color="#95d2ff"></stop></linearGradient><linearGradient gradientTransform="matrix(0 256.03 271.19 0 -128633.3594 1052927.75)" gradientUnits="userSpaceOnUse" id="SVGID_26_" node-id="137" spreadMethod="pad" x1="-4110.453" x2="-4109.8433" y1="477.0591" y2="477.0591"><stop offset="0" stop-color="#2b5acc"></stop><stop offset="1" stop-color="#152873"></stop></linearGradient><linearGradient gradientTransform="matrix(0 111.77 123.43 0 -60044.0977 459448.3438)" gradientUnits="userSpaceOnUse" id="SVGID_27_" node-id="141" spreadMethod="pad" x1="-4105.786" x2="-4105.1763" y1="492.4603" y2="492.4603"><stop offset="0" stop-color="#e1f2ff"></stop><stop offset="1" stop-color="#95d2ff"></stop></linearGradient><linearGradient gradientTransform="matrix(-128.17 241.06 -226.59 -136.36 -424801.4375 1054702)" gradientUnits="userSpaceOnUse" id="SVGID_28_" node-id="145" spreadMethod="pad" x1="-4117.6875" x2="-4117.0776" y1="451.0583" y2="451.0952"><stop offset="0" stop-color="#e1f2ff"></stop><stop offset="1" stop-color="#95d2ff"></stop></linearGradient><linearGradient gradientTransform="matrix(-68.43 86.07 -86.07 -68.43 -244393.3438 385618.9688)" gradientUnits="userSpaceOnUse" id="SVGID_29_" node-id="149" spreadMethod="pad" x1="-4127.632" x2="-4127.0034" y1="434.0855" y2="434.0855"><stop offset="0" stop-color="#e1f2ff"></stop><stop offset="1" stop-color="#95d2ff"></stop></linearGradient><linearGradient gradientTransform="matrix(-157.99 209.66 115.34 86.92 -706354.1875 821774.125)" gradientUnits="userSpaceOnUse" id="SVGID_30_" node-id="154" spreadMethod="pad" x1="-4119.399" x2="-4118.7705" y1="487.6298" y2="487.6298"><stop offset="0" stop-color="#2b5acc"></stop><stop offset="1" stop-color="#152873"></stop></linearGradient><linearGradient gradientTransform="matrix(-130.44 173.1 90.95 68.54 -581715.5625 679933.375)" gradientUnits="userSpaceOnUse" id="SVGID_31_" node-id="158" spreadMethod="pad" x1="-4120.4536" x2="-4119.825" y1="493.8957" y2="493.8957"><stop offset="0" stop-color="#e1f2ff"></stop><stop offset="1" stop-color="#95d2ff"></stop></linearGradient><linearGradient gradientTransform="matrix(-147.7 55.52 -55.52 -147.7 -584791.375 296642.4375)" gradientUnits="userSpaceOnUse" id="SVGID_32_" node-id="162" spreadMethod="pad" x1="-4133.0767" x2="-4132.448" y1="450.7847" y2="450.7847"><stop offset="0" stop-color="#e1f2ff"></stop><stop offset="1" stop-color="#95d2ff"></stop></linearGradient><linearGradient gradientTransform="matrix(-79.76 94.82 -102.81 -69.16 -283304.75 421754.75)" gradientUnits="userSpaceOnUse" id="SVGID_33_" node-id="166" spreadMethod="pad" x1="-4123.644" x2="-4123.0347" y1="437.1482" y2="437.0742"><stop offset="0" stop-color="#ffbc56"></stop><stop offset="1" stop-color="#ff5133"></stop></linearGradient><linearGradient gradientTransform="matrix(0 -130.99 -36.7 -0 13876.0361 -539170.6875)" gradientUnits="userSpaceOnUse" id="SVGID_34_" node-id="171" spreadMethod="pad" x1="-4121.0483" x2="-4120.4385" y1="364.9074" y2="364.9074"><stop offset="0" stop-color="#ff5133"></stop><stop offset="1" stop-color="#ffbc56"></stop></linearGradient><linearGradient gradientTransform="matrix(0 30.77 -113.29 0 49510.9258 126453.7188)" gradientUnits="userSpaceOnUse" id="SVGID_35_" node-id="175" spreadMethod="pad" x1="-4086.178" x2="-4085.5679" y1="432.326" y2="432.326"><stop offset="0" stop-color="#2b5acc"></stop><stop offset="1" stop-color="#152873"></stop></linearGradient><linearGradient gradientTransform="matrix(0 24.96 -64.87 0 27035.5117 102424.1406)" gradientUnits="userSpaceOnUse" id="SVGID_36_" node-id="180" spreadMethod="pad" x1="-4078.9011" x2="-4078.2725" y1="408.5523" y2="408.5523"><stop offset="0" stop-color="#2b5acc"></stop><stop offset="1" stop-color="#152873"></stop></linearGradient><linearGradient gradientTransform="matrix(0 -25.01 -77.95 -0 33101.8203 -103332.5)" gradientUnits="userSpaceOnUse" id="SVGID_37_" node-id="184" spreadMethod="pad" x1="-4151.5386" x2="-4150.9287" y1="417.8205" y2="417.8205"><stop offset="0" stop-color="#ff5133"></stop><stop offset="1" stop-color="#ffbc56"></stop></linearGradient><linearGradient gradientTransform="matrix(0 14.47 -53.06 0 21551.4238 59083.0352)" gradientUnits="userSpaceOnUse" id="SVGID_38_" node-id="188" spreadMethod="pad" x1="-4046.7117" x2="-4046.0833" y1="396.1307" y2="396.1307"><stop offset="0" stop-color="#2b5acc"></stop><stop offset="1" stop-color="#152873"></stop></linearGradient><linearGradient gradientTransform="matrix(0 165.2 -96.28 0 41616.7188 679224.375)" gradientUnits="userSpaceOnUse" id="SVGID_39_" node-id="192" spreadMethod="pad" x1="-4108.4307" x2="-4107.821" y1="426.7138" y2="426.7138"><stop offset="0" stop-color="#e1f2ff"></stop><stop offset="1" stop-color="#95d2ff"></stop></linearGradient><linearGradient gradientTransform="matrix(-54.19 103.59 -103.59 -54.19 -177932.6875 450968.5625)" gradientUnits="userSpaceOnUse" id="SVGID_40_" node-id="196" spreadMethod="pad" x1="-4121.531" x2="-4120.9023" y1="433.1378" y2="433.1378"><stop offset="0" stop-color="#e1f2ff"></stop><stop offset="1" stop-color="#95d2ff"></stop></linearGradient><linearGradient gradientTransform="matrix(0 77.95 -77.95 0 33101.8203 320482.0312)" gradientUnits="userSpaceOnUse" id="SVGID_41_" node-id="200" spreadMethod="pad" x1="-4102.702" x2="-4102.0923" y1="417.8205" y2="417.8205"><stop offset="0" stop-color="#ffbc56"></stop><stop offset="1" stop-color="#ff5133"></stop></linearGradient><linearGradient gradientTransform="matrix(0 46.71 -31.53 0 11555.0781 191960.7812)" gradientUnits="userSpaceOnUse" id="SVGID_42_" node-id="204" spreadMethod="pad" x1="-4095.385" x2="-4094.7751" y1="349.5833" y2="349.5833"><stop offset="0" stop-color="#e1f2ff"></stop><stop offset="1" stop-color="#95d2ff"></stop></linearGradient><linearGradient gradientTransform="matrix(0 25.65 -25.65 0 8826.2715 105312.1719)" gradientUnits="userSpaceOnUse" id="SVGID_43_" node-id="208" spreadMethod="pad" x1="-4080.087" x2="-4079.4587" y1="323.3355" y2="323.3355"><stop offset="0" stop-color="#2b5acc"></stop><stop offset="1" stop-color="#152873"></stop></linearGradient><linearGradient gradientTransform="matrix(133.32 115.37 47.5 -54.89 523779.7188 499811.3125)" gradientUnits="userSpaceOnUse" id="SVGID_44_" node-id="213" spreadMethod="pad" x1="-4096.005" x2="-4095.377" y1="485.8477" y2="485.8477"><stop offset="0" stop-color="#2b5acc"></stop><stop offset="1" stop-color="#152873"></stop></linearGradient><linearGradient gradientTransform="matrix(109.77 94.98 33.74 -38.99 433277.5312 408582.0938)" gradientUnits="userSpaceOnUse" id="SVGID_45_" node-id="217" spreadMethod="pad" x1="-4092.0996" x2="-4091.4897" y1="495.2616" y2="495.2616"><stop offset="0" stop-color="#e1f2ff"></stop><stop offset="1" stop-color="#95d2ff"></stop></linearGradient><linearGradient gradientTransform="matrix(20.85 70.81 -70.81 20.85 116054.0234 281388.75)" gradientUnits="userSpaceOnUse" id="SVGID_46_" node-id="221" spreadMethod="pad" x1="-4089.7026" x2="-4089.0745" y1="422.9449" y2="422.9449"><stop offset="0" stop-color="#e1f2ff"></stop><stop offset="1" stop-color="#95d2ff"></stop></linearGradient><linearGradient gradientTransform="matrix(0 8.4 125.93 0 -61174.3164 34275.9844)" gradientUnits="userSpaceOnUse" id="SVGID_47_" node-id="226" spreadMethod="pad" x1="-4008.0222" x2="-4007.4124" y1="491.7932" y2="491.7932"><stop offset="0" stop-color="#e6f7ff"></stop><stop offset="1" stop-color="#66beff"></stop></linearGradient><linearGradient gradientTransform="matrix(0 10.85 125.93 0 -61190.7617 44343.2734)" gradientUnits="userSpaceOnUse" id="SVGID_48_" node-id="230" spreadMethod="pad" x1="-4032.5835" x2="-4031.9734" y1="491.8432" y2="491.8432"><stop offset="0" stop-color="#e6f7ff"></stop><stop offset="1" stop-color="#66beff"></stop></linearGradient><linearGradient gradientTransform="matrix(0 -99.05 -26.2 -0 9297.8428 -407659.3125)" gradientUnits="userSpaceOnUse" id="SVGID_49_" node-id="234" spreadMethod="pad" x1="-4122.687" x2="-4122.077" y1="329.477" y2="329.477"><stop offset="0" stop-color="#ff3a23"></stop><stop offset="1" stop-color="#ff963e"></stop></linearGradient><linearGradient gradientTransform="matrix(0 27.79 -38.07 0 14805.8564 114042.2578)" gradientUnits="userSpaceOnUse" id="SVGID_50_" node-id="238" spreadMethod="pad" x1="-4082.148" x2="-4081.52" y1="371.4297" y2="371.4297"><stop offset="0" stop-color="#85d1fe"></stop><stop offset="1" stop-color="#4a7ee8"></stop></linearGradient><linearGradient gradientTransform="matrix(0 -99.05 -72.8 -0 31027.1758 -407659.3125)" gradientUnits="userSpaceOnUse" id="SVGID_51_" node-id="242" spreadMethod="pad" x1="-4122.687" x2="-4122.077" y1="416.2483" y2="416.2483"><stop offset="0" stop-color="#ff5133"></stop><stop offset="1" stop-color="#ffbc56"></stop></linearGradient><linearGradient gradientTransform="matrix(0 27.79 -105.79 0 46338.875 114042.2578)" gradientUnits="userSpaceOnUse" id="SVGID_52_" node-id="246" spreadMethod="pad" x1="-4082.148" x2="-4081.52" y1="431.1808" y2="431.1808"><stop offset="0" stop-color="#e1f2ff"></stop><stop offset="1" stop-color="#95d2ff"></stop></linearGradient><linearGradient gradientTransform="matrix(0 30.29 -14.23 0 3788.1819 124370.6797)" gradientUnits="userSpaceOnUse" id="SVGID_53_" node-id="251" spreadMethod="pad" x1="-4085.7478" x2="-4085.1382" y1="217.4935" y2="217.4935"><stop offset="0" stop-color="#e1f2ff"></stop><stop offset="1" stop-color="#95d2ff"></stop></linearGradient><linearGradient gradientTransform="matrix(0 115.79 -54.56 0 22550.8711 476120.2188)" gradientUnits="userSpaceOnUse" id="SVGID_54_" node-id="255" spreadMethod="pad" x1="-4106.32" x2="-4105.71" y1="400.1159" y2="400.1159"><stop offset="0" stop-color="#85d1fe"></stop><stop offset="1" stop-color="#4a7ee8"></stop></linearGradient><linearGradient gradientTransform="matrix(0 115.79 -68.08 0 28867.8477 476120.2188)" gradientUnits="userSpaceOnUse" id="SVGID_55_" node-id="259" spreadMethod="pad" x1="-4106.32" x2="-4105.71" y1="413.0772" y2="413.0772"><stop offset="0" stop-color="#e1f2ff"></stop><stop offset="1" stop-color="#95d2ff"></stop></linearGradient><linearGradient gradientTransform="matrix(0 81.86 -48.13 0 19606.4355 336539.125)" gradientUnits="userSpaceOnUse" id="SVGID_56_" node-id="263" spreadMethod="pad" x1="-4103.23" x2="-4102.6016" y1="391.8737" y2="391.8737"><stop offset="0" stop-color="#2b5acc"></stop><stop offset="1" stop-color="#152873"></stop></linearGradient><linearGradient gradientTransform="matrix(0 45.9 -26.99 0 9793.7061 188613.8594)" gradientUnits="userSpaceOnUse" id="SVGID_57_" node-id="267" spreadMethod="pad" x1="-4094.8035" x2="-4094.1936" y1="335.2409" y2="335.2409"><stop offset="0" stop-color="#152873"></stop><stop offset="1" stop-color="#2b5acc"></stop></linearGradient><linearGradient gradientTransform="matrix(0 -80.47 35.77 0 -19765.748 -330836.375)" gradientUnits="userSpaceOnUse" id="SVGID_58_" node-id="272" spreadMethod="pad" x1="-4122.8833" x2="-4122.255" y1="566.0345" y2="566.0345"><stop offset="0" stop-color="#ff3a23"></stop><stop offset="1" stop-color="#ff963e"></stop></linearGradient><linearGradient gradientTransform="matrix(0 101.99 62.96 0 -32433.8848 419766.5312)" gradientUnits="userSpaceOnUse" id="SVGID_59_" node-id="277" spreadMethod="pad" x1="-4106.93" x2="-4106.3203" y1="522.3912" y2="522.3912"><stop offset="0" stop-color="#2b5acc"></stop><stop offset="1" stop-color="#152873"></stop></linearGradient><linearGradient gradientTransform="matrix(0 -80.47 35.77 0 -19796.207 -330836.375)" gradientUnits="userSpaceOnUse" id="SVGID_60_" node-id="281" spreadMethod="pad" x1="-4122.8833" x2="-4122.255" y1="566.3597" y2="566.3597"><stop offset="0" stop-color="#ff5133"></stop><stop offset="1" stop-color="#ffbc56"></stop></linearGradient><linearGradient gradientTransform="matrix(0 -80.47 35.77 0 -19485.7285 -330836.375)" gradientUnits="userSpaceOnUse" id="SVGID_61_" node-id="285" spreadMethod="pad" x1="-4122.8833" x2="-4122.255" y1="563.0421" y2="563.0421"><stop offset="0" stop-color="#ff3a23"></stop><stop offset="1" stop-color="#ff963e"></stop></linearGradient><linearGradient gradientTransform="matrix(0 101.99 62.96 0 -32153.8652 419766.5312)" gradientUnits="userSpaceOnUse" id="SVGID_62_" node-id="290" spreadMethod="pad" x1="-4106.93" x2="-4106.3203" y1="520.691" y2="520.691"><stop offset="0" stop-color="#2b5acc"></stop><stop offset="1" stop-color="#152873"></stop></linearGradient><linearGradient gradientTransform="matrix(0 -80.47 35.77 0 -19516.1875 -330836.375)" gradientUnits="userSpaceOnUse" id="SVGID_63_" node-id="294" spreadMethod="pad" x1="-4122.8833" x2="-4122.255" y1="563.3675" y2="563.3675"><stop offset="0" stop-color="#ff5133"></stop><stop offset="1" stop-color="#ffbc56"></stop></linearGradient><linearGradient gradientTransform="matrix(0 -80.47 35.77 0 -19189.8574 -330836.375)" gradientUnits="userSpaceOnUse" id="SVGID_64_" node-id="298" spreadMethod="pad" x1="-4122.8833" x2="-4122.255" y1="559.8801" y2="559.8801"><stop offset="0" stop-color="#ff3a23"></stop><stop offset="1" stop-color="#ff963e"></stop></linearGradient><linearGradient gradientTransform="matrix(0 101.99 62.96 0 -31857.9941 419766.5312)" gradientUnits="userSpaceOnUse" id="SVGID_65_" node-id="303" spreadMethod="pad" x1="-4106.93" x2="-4106.3203" y1="518.8946" y2="518.8946"><stop offset="0" stop-color="#2b5acc"></stop><stop offset="1" stop-color="#152873"></stop></linearGradient><linearGradient gradientTransform="matrix(0 -80.47 35.77 0 -19220.3184 -330836.375)" gradientUnits="userSpaceOnUse" id="SVGID_66_" node-id="307" spreadMethod="pad" x1="-4122.8833" x2="-4122.255" y1="560.2057" y2="560.2057"><stop offset="0" stop-color="#ff5133"></stop><stop offset="1" stop-color="#ffbc56"></stop></linearGradient><linearGradient gradientTransform="matrix(0 707.54 557.69 0 -261935.3906 2910351.25)" gradientUnits="userSpaceOnUse" id="SVGID_67_" node-id="318" spreadMethod="pad" x1="-4112.718" x2="-4112.1074" y1="470.6815" y2="470.6815"><stop offset="0" stop-color="#f7e9dd"></stop><stop offset="1" stop-color="#e6c2a2"></stop></linearGradient><linearGradient gradientTransform="matrix(43.65 -170.59 -77.04 -19.71 212804.4531 -693056.4375)" gradientUnits="userSpaceOnUse" id="SVGID_68_" node-id="323" spreadMethod="pad" x1="-4114.4272" x2="-4113.817" y1="419.8462" y2="419.8462"><stop offset="0" stop-color="#eb4022"></stop><stop offset="1" stop-color="#ffbc56"></stop></linearGradient><linearGradient gradientTransform="matrix(24.81 -92.61 -68.07 -18.24 131180.6406 -372890.375)" gradientUnits="userSpaceOnUse" id="SVGID_69_" node-id="327" spreadMethod="pad" x1="-4114.401" x2="-4113.772" y1="415.1173" y2="415.1173"><stop offset="0" stop-color="#ff5133"></stop><stop offset="1" stop-color="#ffbc56"></stop></linearGradient><linearGradient gradientTransform="matrix(24.83 -92.66 -23.59 -6.32 110496.0859 -378565.2812)" gradientUnits="userSpaceOnUse" id="SVGID_70_" node-id="331" spreadMethod="pad" x1="-4114.092" x2="-4113.482" y1="318.7783" y2="318.7783"><stop offset="0" stop-color="#ff5133"></stop><stop offset="1" stop-color="#ffbc56"></stop></linearGradient><linearGradient gradientTransform="matrix(-38.92 142.52 -52.85 -14.43 -138124.9062 592603.75)" gradientUnits="userSpaceOnUse" id="SVGID_71_" node-id="335" spreadMethod="pad" x1="-4114.0313" x2="-4113.4023" y1="399.8277" y2="399.8277"><stop offset="0" stop-color="#2b5acc"></stop><stop offset="1" stop-color="#152873"></stop></linearGradient><linearGradient gradientTransform="matrix(-24.77 92.45 -46.98 -12.59 -82644.3984 385812.3438)" gradientUnits="userSpaceOnUse" id="SVGID_72_" node-id="339" spreadMethod="pad" x1="-4113.9375" x2="-4113.327" y1="391.4846" y2="391.4846"><stop offset="0" stop-color="#2b5acc"></stop><stop offset="1" stop-color="#152873"></stop></linearGradient><linearGradient gradientTransform="matrix(-14.58 54.4 -26.07 -6.99 -50413.1914 226698.625)" gradientUnits="userSpaceOnUse" id="SVGID_73_" node-id="343" spreadMethod="pad" x1="-4113.8857" x2="-4113.2754" y1="333.8855" y2="333.8855"><stop offset="0" stop-color="#152873"></stop><stop offset="1" stop-color="#2b5acc"></stop></linearGradient><linearGradient gradientTransform="matrix(0 470.04 370.49 0 -174737.5469 1933245.875)" gradientUnits="userSpaceOnUse" id="SVGID_74_" node-id="348" spreadMethod="pad" x1="-4112.004" x2="-4111.376" y1="473.7907" y2="473.7907"><stop offset="0" stop-color="#e6cbb0"></stop><stop offset="1" stop-color="#d3a77c"></stop></linearGradient><linearGradient gradientTransform="matrix(0 707.54 557.69 0 -261935.3906 2910351.25)" gradientUnits="userSpaceOnUse" id="SVGID_75_" node-id="352" spreadMethod="pad" x1="-4112.718" x2="-4112.1074" y1="470.6697" y2="470.6697"><stop offset="0" stop-color="#f7e9dd"></stop><stop offset="1" stop-color="#e6c2a2"></stop></linearGradient><linearGradient gradientTransform="matrix(0 36.16 23.11 0 -14066.792 148201.3438)" gradientUnits="userSpaceOnUse" id="SVGID_76_" node-id="356" spreadMethod="pad" x1="-4086.3508" x2="-4085.7407" y1="624.9081" y2="624.9081"><stop offset="0" stop-color="#2b5acc"></stop><stop offset="1" stop-color="#152873"></stop></linearGradient><linearGradient gradientTransform="matrix(0 32.51 21.95 0 -13544.2617 133196.8594)" gradientUnits="userSpaceOnUse" id="SVGID_77_" node-id="360" spreadMethod="pad" x1="-4082.9146" x2="-4082.305" y1="633.6453" y2="633.6453"><stop offset="0" stop-color="#2b5acc"></stop><stop offset="1" stop-color="#152873"></stop></linearGradient><linearGradient gradientTransform="matrix(-24.77 92.45 -34.28 -9.19 -88447.6641 384260.3438)" gradientUnits="userSpaceOnUse" id="SVGID_78_" node-id="365" spreadMethod="pad" x1="-4113.9224" x2="-4113.3125" y1="365.5079" y2="365.5079"><stop offset="0" stop-color="#2b5acc"></stop><stop offset="1" stop-color="#152873"></stop></linearGradient><linearGradient gradientTransform="matrix(43.65 -170.59 -77.04 -19.71 212804.4531 -693056.4375)" gradientUnits="userSpaceOnUse" id="SVGID_79_" node-id="369" spreadMethod="pad" x1="-4114.4272" x2="-4113.817" y1="419.6607" y2="419.6607"><stop offset="0" stop-color="#eb4022"></stop><stop offset="1" stop-color="#ffbc56"></stop></linearGradient><linearGradient gradientTransform="matrix(24.83 -92.66 -45.57 -12.21 120840.6797 -375883.375)" gradientUnits="userSpaceOnUse" id="SVGID_80_" node-id="373" spreadMethod="pad" x1="-4114.4497" x2="-4113.8213" y1="389.9304" y2="389.9304"><stop offset="0" stop-color="#ff5133"></stop><stop offset="1" stop-color="#ffbc56"></stop></linearGradient><linearGradient gradientTransform="matrix(24.81 -92.61 -68.07 -18.24 131180.6406 -372890.375)" gradientUnits="userSpaceOnUse" id="SVGID_81_" node-id="377" spreadMethod="pad" x1="-4114.401" x2="-4113.772" y1="414.5079" y2="414.5079"><stop offset="0" stop-color="#ff5133"></stop><stop offset="1" stop-color="#ffbc56"></stop></linearGradient><linearGradient gradientTransform="matrix(24.83 -92.66 -32.32 -8.66 114698.8594 -377438.0938)" gradientUnits="userSpaceOnUse" id="SVGID_82_" node-id="381" spreadMethod="pad" x1="-4114.098" x2="-4113.4697" y1="359.786" y2="359.786"><stop offset="0" stop-color="#ff5133"></stop><stop offset="1" stop-color="#ffbc56"></stop></linearGradient><linearGradient gradientTransform="matrix(19.21 -71.7 -23.59 -6.32 87561 -292323.75)" gradientUnits="userSpaceOnUse" id="SVGID_83_" node-id="385" spreadMethod="pad" x1="-4113.8105" x2="-4113.2007" y1="321.9868" y2="321.9868"><stop offset="0" stop-color="#ffbc56"></stop><stop offset="1" stop-color="#ff5133"></stop></linearGradient></defs><g node-id="1158"><g node-id="1159"><g node-id="1160"><path d="M 659.90 834.70 C 593.60 844.50 545.70 876.80 552.90 906.90 C 560.10 937.00 619.80 953.40 686.00 943.60 C 752.20 933.80 800.20 901.50 793.00 871.50 C 785.70 841.50 726.10 824.90 659.90 834.70 Z M 997.10 485.20 C 1004.90 258.40 829.40 141.30 625.30 171.40 C 497.60 190.30 455.60 271.30 322.70 335.10 C 204.20 392.00 48.10 425.60 27.70 620.00 C 15.40 738.00 103.90 888.30 260.60 888.30 C 462.60 888.30 476.80 761.90 727.50 761.90 C 878.20 761.90 990.90 664.70 997.10 485.20 Z M 213.30 103.10 C 122.70 142.10 64.70 212.00 83.70 259.10 C 102.70 306.20 191.70 312.70 282.20 273.70 C 372.70 234.70 430.80 164.80 411.80 117.70 C 392.80 70.60 303.90 64.10 213.30 103.10 Z" fill="#cde6ff" fill-rule="evenodd" group-id="1,2,3" id="BG" node-id="8" stroke="none" target-height="889.30005" target-width="989.5" target-x="15.4" target-y="64.1"></path><path d="M 974.20 602.60 C 933.10 706.70 841.10 761.90 727.50 761.90 C 620.20 761.90 556.20 785.10 502.30 811.60 L 91.60 811.60 C 44.10 757.80 21.10 684.10 27.70 620.10 C 28.30 614.10 29.10 608.30 30.00 602.60 L 974.20 602.60 Z" fill="#9fcfff" fill-rule="evenodd" group-id="1,2,3" node-id="904" stroke="none" target-height="209" target-width="953.10004" target-x="21.1" target-y="602.6"></path><path d="M 183.70 602.60 L 86.50 602.60 C 85.50 602.60 84.60 602.20 83.90 601.50 C 83.20 600.80 82.80 599.90 82.80 598.90 L 82.80 527.90 C 82.80 525.90 84.50 524.20 86.50 524.20 C 86.50 524.20 86.50 524.20 86.50 524.20 L 183.80 524.20 L 183.80 602.60 Z" fill="#b1d9ff" fill-rule="evenodd" group-id="1,2,3" node-id="906" stroke="none" target-height="78.39996" target-width="101" target-x="82.8" target-y="524.2"></path><path d="M 489.20 602.60 L 391.90 602.60 C 389.90 602.60 388.20 600.90 388.20 598.90 L 388.20 527.90 C 388.20 526.90 388.60 526.00 389.30 525.30 C 390.00 524.60 390.90 524.20 391.90 524.20 L 489.20 524.20 L 489.20 602.60 Z" fill="#b1d9ff" fill-rule="evenodd" group-id="1,2,3" node-id="908" stroke="none" target-height="78.39996" target-width="101" target-x="388.2" target-y="524.2"></path><path d="M 976.60 349.80 C 983.30 367.60 988.30 386.00 991.60 404.70 L 172.40 404.70 C 210.40 383.20 251.70 366.80 290.70 349.80 L 976.60 349.80 Z" fill="#9fcfff" fill-rule="evenodd" group-id="1,2,3" node-id="910" stroke="none" target-height="54.900024" target-width="819.19995" target-x="172.4" target-y="349.8"></path><path d="M 147.80 140.40 L 158.40 140.40 C 163.30 140.40 167.30 144.40 167.30 149.40 L 187.20 149.40 C 191.40 149.40 194.80 152.90 194.90 157.10 L 194.90 157.10 C 194.90 161.40 191.40 164.80 187.20 164.80 L 187.20 164.80 L 187.20 164.80 L 187.20 174.70 L 199.30 174.70 C 208.60 175.00 216.00 182.40 216.30 191.70 C 216.30 202.70 216.30 213.60 216.30 224.60 C 216.20 234.80 211.20 244.40 202.80 250.20 C 197.60 253.70 191.50 255.60 185.30 255.60 L 179.10 255.60 C 177.30 259.60 175.20 263.50 172.80 267.20 L 172.80 267.20 L 172.80 282.70 L 175.00 282.70 C 178.10 282.70 180.90 284.70 181.80 287.70 L 185.10 298.60 C 152.90 300.90 125.20 296.10 106.30 284.50 C 107.60 283.30 109.30 282.70 111.10 282.70 L 113.30 282.70 L 113.30 267.20 L 113.30 267.20 C 103.90 252.50 98.90 235.50 98.90 218.10 L 98.90 189.30 C 110.40 172.50 127.10 155.80 147.80 140.40 Z M 187.10 186.40 L 196.70 186.40 C 201.00 186.50 204.40 189.90 204.60 194.20 C 204.60 205.30 204.60 211.50 204.60 222.50 C 204.30 234.20 195.00 243.60 183.30 244.10 C 185.80 235.70 187.10 226.90 187.10 218.10 L 187.10 186.40 Z" fill="#b1d9ff" fill-rule="evenodd" group-id="1,2,3" node-id="912" stroke="none" target-height="160.5" target-width="117.4" target-x="98.9" target-y="140.4"></path><path d="M 449.30 255.80 C 502.60 216.70 548.40 182.80 625.30 171.40 C 685.20 162.60 742.60 166.40 793.70 182.00 C 793.70 220.30 793.70 258.70 793.60 297.10 C 793.40 303.00 788.60 307.80 782.70 308.00 C 740.70 308.10 694.10 308.20 646.90 308.20 L 646.90 330.40 L 692.30 330.40 L 692.30 349.80 L 550.80 349.80 L 550.80 330.50 L 596.20 330.50 L 596.20 308.30 C 549.00 308.30 502.40 308.20 460.40 308.10 C 459.40 308.10 458.50 308.00 457.50 307.70 C 452.80 306.30 449.60 302.10 449.50 297.20 C 449.40 283.30 449.40 269.60 449.30 255.80 Z" fill="#b1d9ff" fill-rule="evenodd" group-id="1,2,3" node-id="914" stroke="none" target-height="187.19998" target-width="344.40002" target-x="449.3" target-y="162.6"></path><path d="M 864.20 213.50 C 915.90 245.00 955.50 293.00 976.60 349.80 L 835.20 349.80 C 832.60 349.80 830.60 347.70 830.60 345.20 L 830.60 345.20 L 830.60 334.80 C 830.60 332.20 832.70 330.20 835.20 330.20 L 864.30 330.20 L 864.30 213.50 Z" fill="#b1d9ff" fill-rule="evenodd" group-id="1,2,3" node-id="916" stroke="none" target-height="136.29999" target-width="146" target-x="830.6" target-y="213.5"></path></g><g node-id="1161"><path d="M 766.30 495.10 L 766.30 708.70" fill="none" group-id="1,2,4" node-id="920" stroke="none" target-height="213.6" target-width="0" target-x="766.3" target-y="495.1"></path><path d="M 628.60 564.00 L 977.60 564.00" fill="none" group-id="1,2,4" node-id="922" stroke="none" target-height="0" target-width="349" target-x="628.6" target-y="564"></path><path d="M 642.90 641.30 L 955.50 641.30" fill="none" group-id="1,2,4" node-id="924" stroke="none" target-height="0" target-width="312.59998" target-x="642.9" target-y="641.3"></path><path d="M 681.30 485.60 L 681.30 708.70" fill="none" group-id="1,2,4" node-id="926" stroke="none" target-height="223.1" target-width="0" target-x="681.3" target-y="485.6"></path><path d="M 851.30 504.60 L 851.30 708.70" fill="none" group-id="1,2,4" node-id="928" stroke="none" target-height="204.1" target-width="0" target-x="851.3" target-y="504.6"></path><path d="M 936.20 514.20 L 936.20 708.70" fill="none" group-id="1,2,4" node-id="930" stroke="none" target-height="194.5" target-width="0" target-x="936.2" target-y="514.2"></path><path d="M 670.00 487.90 L 612.00 480.50 L 611.20 480.20 C 610.60 479.70 610.40 479.70 610.10 478.90 C 609.70 477.70 610.00 476.40 611.00 475.60 C 611.60 475.10 611.90 475.20 612.60 475.20 L 942.90 517.50 C 943.40 517.60 944.00 517.90 944.30 518.30 C 944.70 518.80 944.90 519.40 944.90 520.00 C 944.90 520.30 944.90 520.60 944.80 520.90 L 897.60 709.40 L 897.60 709.40 C 897.50 709.70 897.40 710.00 897.20 710.20 C 897.10 710.50 896.90 710.70 896.60 710.80 C 896.10 711.10 895.60 711.30 895.00 711.20 C 894.40 711.10 893.80 710.80 893.50 710.30 C 893.30 710.10 893.20 709.80 893.10 709.50 C 893.00 709.20 892.90 708.90 893.00 708.60 L 893.00 643.80 L 823.30 643.80 L 823.30 708.60 C 823.30 709.20 823.10 709.80 822.80 710.30 C 822.10 711.30 820.60 711.50 819.60 710.70 C 819.40 710.60 819.30 710.40 819.20 710.30 C 818.80 709.80 818.60 709.20 818.60 708.60 L 818.60 643.80 L 749.00 643.80 L 749.00 708.60 C 749.00 709.20 748.80 709.80 748.40 710.30 C 747.70 711.30 746.20 711.50 745.20 710.70 C 745.00 710.60 744.90 710.40 744.80 710.30 C 744.40 709.80 744.20 709.20 744.20 708.60 L 744.20 643.80 L 674.60 643.80 L 674.60 708.60 C 674.60 709.20 674.40 709.80 674.00 710.30 C 673.30 711.30 671.80 711.50 670.80 710.70 C 670.60 710.60 670.50 710.40 670.40 710.30 C 670.00 709.80 669.80 709.20 669.80 708.60 L 669.80 643.80 L 638.60 643.80 C 637.90 643.70 637.70 643.80 637.10 643.20 C 636.10 642.00 636.10 640.30 637.10 639.10 C 637.50 638.70 638.00 638.50 638.60 638.50 L 670.00 638.50 L 670.00 566.70 L 626.20 566.70 C 625.50 566.60 625.30 566.70 624.70 566.10 C 623.60 564.90 623.60 563.20 624.70 562.00 C 625.10 561.60 625.60 561.40 626.20 561.40 L 670.00 561.40 L 670.00 487.90 Z M 897.80 643.90 L 897.80 689.60 L 909.20 643.90 L 897.80 643.90 Z M 928.50 566.70 L 897.70 566.70 L 897.70 638.50 L 910.50 638.50 L 928.50 566.70 Z M 674.70 566.70 L 674.70 638.50 L 744.30 638.50 L 744.30 566.70 L 674.70 566.70 Z M 749.10 566.70 L 749.10 638.50 L 818.70 638.50 L 818.70 566.70 L 749.10 566.70 Z M 823.40 566.70 L 823.40 638.50 L 893.10 638.50 L 893.10 566.70 L 823.40 566.70 Z M 897.80 517.20 L 897.80 561.30 L 929.90 561.30 L 939.60 522.50 L 897.80 517.20 L 897.80 517.20 Z M 674.70 561.30 L 744.30 561.30 L 744.30 497.50 L 674.70 488.60 L 674.70 561.30 Z M 749.10 561.30 L 818.70 561.30 L 818.70 507.00 L 749.10 498.10 L 749.10 561.30 Z M 823.40 561.30 L 893.10 561.30 L 893.10 516.60 L 823.40 507.70 L 823.40 561.30 Z" fill="#ffffff" fill-rule="evenodd" group-id="1,2,4" node-id="932" stroke="none" target-height="236.4" target-width="335.2" target-x="609.7" target-y="475.1"></path><path d="M 643.00 708.70 L 657.60 728.70 C 657.60 728.70 634.50 801.70 627.90 822.40 C 626.80 825.80 627.40 829.60 629.50 832.50 L 642.40 850.60 C 644.60 853.60 648.00 855.40 651.70 855.40 L 868.10 855.40 C 873.60 855.40 878.10 859.90 878.10 865.40 L 878.10 865.40 L 878.10 865.40 C 878.10 870.90 873.60 875.40 868.10 875.40 L 641.40 875.40 C 637.70 875.40 634.30 873.60 632.20 870.60 L 607.50 836.00 C 605.40 833.10 604.80 829.30 605.90 825.90 C 613.40 802.10 643.10 708.70 643.00 708.70 L 643.00 708.70 Z" fill="url(#SVGID_1_)" fill-rule="evenodd" group-id="1,2,4" node-id="934" stroke="none" target-height="166.70001" target-width="273.3" target-x="604.8" target-y="708.7"></path><path d="M 565.70 458.50 L 547.10 456.20 L 547.10 436.20 L 568.20 438.70 L 565.70 458.50 L 565.70 458.50 Z" fill="url(#SVGID_2_)" fill-rule="evenodd" group-id="1,2,4" node-id="936" stroke="none" target-height="22.299988" target-width="21.100037" target-x="547.1" target-y="436.2"></path></g><g node-id="1162"><g node-id="1171"><path d="M 317.20 319.80 C 312.70 300.60 324.60 281.30 343.80 276.70 C 362.30 272.30 380.90 283.10 386.30 301.30 C 386.50 302.00 386.70 302.70 386.80 303.40 L 409.40 398.90 L 509.20 397.10 L 516.60 447.70 L 387.50 466.50 C 370.30 469.00 354.00 458.10 349.70 441.30 L 317.20 319.80 L 317.20 319.80 Z" fill="url(#SVGID_3_)" fill-rule="evenodd" group-id="1,2,5,14" node-id="941" stroke="none" target-height="196.70001" target-width="203.89996" target-x="312.7" target-y="272.3"></path><path d="M 488.10 407.80 C 489.00 400.60 495.50 395.60 502.70 396.50 C 502.70 396.50 502.70 396.50 502.80 396.50 L 544.80 402.20 C 549.70 402.90 553.80 406.30 555.30 411.00 L 565.70 443.30 C 566.50 445.90 565.10 448.70 562.60 449.50 C 562.10 449.70 561.60 449.70 561.00 449.70 L 523.80 449.70 C 522.60 449.70 521.40 449.40 520.20 448.90 L 508.70 443.70 L 493.70 443.70 C 488.90 443.70 484.90 439.80 484.90 434.90 C 484.90 434.50 484.90 434.10 485.00 433.80 C 485.80 426.40 487.10 416.00 488.10 407.80 Z" fill="url(#SVGID_4_)" fill-rule="evenodd" group-id="1,2,5,14" node-id="943" stroke="none" target-height="54.100006" target-width="81.600006" target-x="484.9" target-y="395.6"></path></g><g node-id="1172"><path d="M 153.30 870.70 C 153.30 870.70 154.60 893.40 155.10 904.60 C 155.30 908.30 153.40 911.80 150.20 913.70 L 149.80 913.90 C 145.10 916.60 139.00 915.00 136.30 910.30 C 136.30 910.30 136.30 910.30 136.30 910.20 L 98.90 845.40 C 97.20 842.40 98.20 838.70 101.20 837.00 L 125.70 822.80 C 125.70 822.90 153.30 870.70 153.30 870.70 Z" fill="url(#SVGID_5_)" fill-rule="evenodd" group-id="1,2,5,15" node-id="947" stroke="none" target-height="93.79999" target-width="58.100006" target-x="97.2" target-y="822.8"></path><path d="M 355.00 530.70 C 355.00 533.40 354.80 536.00 354.30 538.60 L 340.50 704.80 L 340.50 704.80 C 340.50 715.40 336.30 725.60 328.80 733.10 C 326.50 735.40 324.00 737.40 321.20 739.10 L 153.30 870.90 L 125.70 822.80 L 260.40 688.10 L 260.40 530.70 L 355.00 530.70 Z" fill="url(#SVGID_6_)" fill-rule="evenodd" group-id="1,2,5,15" node-id="949" stroke="none" target-height="340.2" target-width="229.3" target-x="125.7" target-y="530.7"></path></g><g node-id="1173"><path d="M 321.20 911.10 L 351.50 926.40 C 354.80 928.10 356.90 931.50 356.90 935.20 L 356.90 935.70 C 356.90 941.20 352.50 945.60 347.00 945.60 L 272.10 945.60 C 268.70 945.60 265.90 942.80 265.90 939.40 L 265.90 911.10 L 321.20 911.10 Z" fill="url(#SVGID_7_)" fill-rule="evenodd" group-id="1,2,5,16" node-id="953" stroke="none" target-height="34.5" target-width="91" target-x="265.9" target-y="911.1"></path><path d="M 278.20 530.70 L 272.50 569.90 L 289.80 690.30 C 290.60 693.40 291.10 696.60 291.20 699.80 L 321.50 911.10 L 266.00 911.10 L 212.40 711.00 L 212.40 711.00 L 167.30 542.80 C 166.20 538.80 165.70 534.70 165.70 530.60 L 278.20 530.60 Z" fill="url(#SVGID_8_)" fill-rule="evenodd" group-id="1,2,5,16" node-id="955" stroke="none" target-height="380.5" target-width="155.8" target-x="165.7" target-y="530.6"></path></g><g node-id="1174"><path d="M 369.20 294.70 C 369.80 285.60 364.20 277.30 355.60 274.20 L 302.50 255.70 L 249.10 255.70 L 180.80 275.50 L 165.80 530.70 L 355.00 530.70 C 355.00 530.70 365.90 349.30 369.20 294.70 Z" fill="url(#SVGID_9_)" fill-rule="evenodd" group-id="1,2,5,17" node-id="959" stroke="none" target-height="275" target-width="203.99998" target-x="165.8" target-y="255.7"></path><path d="M 316.00 260.60 L 315.50 268.10 C 315.30 270.70 314.50 273.30 313.10 275.50 L 301.30 293.70 C 297.60 299.40 290.00 301.00 284.30 297.40 L 228.90 261.90 L 249.20 256.10 L 302.50 256.10 L 316.00 260.60 Z" fill="url(#SVGID_10_)" fill-rule="evenodd" group-id="1,2,5,17" node-id="961" stroke="none" target-height="44.899994" target-width="87.100006" target-x="228.9" target-y="256.1"></path></g><g node-id="1175"><path d="M 328.90 192.50 C 328.90 192.50 362.20 178.50 361.00 139.00 C 361.00 139.00 334.50 123.20 315.80 110.70 C 292.10 95.00 256.10 105.60 249.30 131.50 C 249.30 131.50 234.90 136.30 229.90 154.80 C 225.60 170.50 240.90 192.50 240.90 192.50 L 328.90 192.50 Z" fill="url(#SVGID_11_)" fill-rule="evenodd" group-id="1,2,5,18" node-id="965" stroke="none" target-height="97.5" target-width="136.6" target-x="225.6" target-y="95"></path><path d="M 274.30 154.90 C 274.30 154.90 292.40 177.70 334.50 171.20 C 334.50 171.20 333.50 198.90 332.70 221.60 C 332.20 236.40 319.70 248.00 304.90 247.50 C 304.10 247.50 303.30 247.40 302.50 247.30 L 302.50 247.30 L 302.50 263.00 L 292.10 278.90 C 290.60 281.30 287.40 281.90 285.00 280.40 L 248.20 256.90 L 248.50 199.00 C 248.50 199.00 261.60 195.80 274.30 154.90 L 274.30 154.90 Z" fill="url(#SVGID_12_)" fill-rule="evenodd" group-id="1,2,5,18" node-id="967" stroke="none" target-height="127" target-width="86.3" target-x="248.2" target-y="154.9"></path><path d="M 266.10 199.80 C 266.10 208.31 259.21 215.20 250.70 215.20 C 242.19 215.20 235.30 208.31 235.30 199.80 C 235.30 191.29 242.19 184.40 250.70 184.40 C 259.21 184.40 266.10 191.29 266.10 199.80 Z" fill="url(#SVGID_13_)" fill-rule="nonzero" group-id="1,2,5,18" node-id="969" stroke="none" target-height="30.800003" target-width="30.800003" target-x="235.3" target-y="184.4"></path><path d="M 302.40 247.30 C 302.40 247.30 285.60 244.10 276.20 238.10 C 276.20 238.10 278.90 258.60 302.40 263.10 L 302.40 247.30 Z" fill="url(#SVGID_14_)" fill-rule="evenodd" group-id="1,2,5,18" node-id="971" stroke="none" target-height="25" target-width="26.199982" target-x="276.2" target-y="238.1"></path></g><g node-id="1176"><path d="M 154.30 319.80 C 149.80 300.60 161.70 281.30 180.90 276.70 C 199.40 272.30 218.00 283.10 223.40 301.30 C 223.60 302.00 223.80 302.70 223.90 303.40 L 246.30 398.20 L 390.00 392.40 C 394.00 392.20 397.40 395.30 397.60 399.40 C 397.60 399.80 397.60 400.30 397.50 400.70 L 392.00 439.60 L 225.50 466.40 L 224.50 466.50 L 224.50 466.50 C 207.30 469.00 191.00 458.10 186.80 441.30 L 154.30 319.80 Z" fill="url(#SVGID_15_)" fill-rule="evenodd" group-id="1,2,5,19" node-id="975" stroke="none" target-height="196.70001" target-width="247.8" target-x="149.8" target-y="272.3"></path><path d="M 364.20 436.10 L 552.40 436.10 L 552.40 456.20 L 364.20 456.20 Z" fill="url(#SVGID_16_)" fill-rule="nonzero" group-id="1,2,5,19" node-id="977" stroke="none" target-height="20.100006" target-width="188.20001" target-x="364.2" target-y="436.1"></path><path d="M 376.20 405.80 C 377.00 398.70 383.50 393.60 390.50 394.40 C 390.60 394.40 390.70 394.40 390.80 394.40 L 432.70 400.10 C 437.60 400.70 441.70 404.20 443.20 408.90 C 446.10 417.90 450.90 432.80 453.60 441.20 C 454.40 443.80 453.00 446.60 450.40 447.40 C 449.90 447.60 449.40 447.60 448.90 447.60 L 411.70 447.60 C 410.50 447.60 409.30 447.30 408.10 446.80 L 396.50 441.60 L 381.50 441.60 C 376.60 441.60 372.70 437.60 372.70 432.80 C 372.70 432.50 372.70 432.10 372.80 431.80 C 373.90 424.40 375.20 414.00 376.20 405.80 L 376.20 405.80 Z" fill="url(#SVGID_17_)" fill-rule="evenodd" group-id="1,2,5,19" node-id="979" stroke="none" target-height="54" target-width="81.69998" target-x="372.7" target-y="393.6"></path></g></g><g node-id="1163"><path d="M 569.50 593.70 C 564.60 593.60 560.40 590.30 559.00 585.60 C 541.80 522.10 524.70 458.50 507.90 394.90 C 506.50 389.10 509.90 383.30 515.60 381.60 C 611.30 355.70 731.10 323.50 826.90 298.20 C 832.70 296.80 838.50 300.20 840.20 305.90 C 857.40 369.40 874.50 433.00 891.30 496.60 C 892.70 502.40 889.30 508.20 883.60 509.90 C 788.00 535.90 668.10 568.00 572.20 593.30 C 571.40 593.50 570.40 593.60 569.50 593.70 L 569.50 593.70 Z" fill="url(#SVGID_18_)" fill-rule="evenodd" group-id="1,2,6" node-id="984" stroke="none" target-height="296.90002" target-width="386.2" target-x="506.5" target-y="296.8"></path><path d="M 871.20 488.50 C 872.00 488.30 872.50 487.50 872.30 486.70 L 826.60 316.20 C 826.50 315.80 826.20 315.50 825.90 315.30 C 825.50 315.10 825.10 315.00 824.70 315.20 L 525.80 395.30 C 525.40 395.40 525.10 395.70 524.90 396.00 C 524.70 396.40 524.60 396.80 524.80 397.20 L 570.50 567.70 C 570.70 568.50 571.50 569.00 572.30 568.80 L 871.20 488.50 Z" fill="url(#SVGID_19_)" fill-rule="evenodd" group-id="1,2,6" node-id="986" stroke="none" target-height="254" target-width="347.90002" target-x="524.6" target-y="315"></path><path d="M 715.50 344.30 L 843.50 378.60 L 872.50 486.80 C 872.70 487.50 872.30 488.30 871.50 488.50 C 871.50 488.50 871.50 488.50 871.50 488.50 L 681.70 539.40 L 553.70 505.10 L 524.70 396.90 C 524.50 396.20 524.90 395.40 525.70 395.20 C 525.70 395.20 525.70 395.20 525.70 395.20 L 715.50 344.30 Z" fill="url(#SVGID_20_)" fill-rule="evenodd" group-id="1,2,6" node-id="988" stroke="none" target-height="195.10004" target-width="348.2" target-x="524.5" target-y="344.3"></path><path d="M 538.60 448.20 L 780.30 512.90 L 572.30 568.70 C 571.60 568.90 570.80 568.50 570.60 567.70 L 538.60 448.20 Z" fill="url(#SVGID_21_)" fill-rule="evenodd" group-id="1,2,6" node-id="990" stroke="none" target-height="120.70001" target-width="241.70001" target-x="538.6" target-y="448.2"></path><path d="M 760.80 576.10 L 752.50 545.20 L 703.60 558.30 L 711.90 589.20 L 760.80 576.10 Z" fill="url(#SVGID_22_)" fill-rule="evenodd" group-id="1,2,6" node-id="992" stroke="none" target-height="44" target-width="57.200012" target-x="703.6" target-y="545.2"></path><path d="M 807.20 573.70 L 802.20 555.00 L 665.60 591.60 L 670.60 610.30 L 807.20 573.70 Z" fill="url(#SVGID_23_)" fill-rule="evenodd" group-id="1,2,6" node-id="994" stroke="none" target-height="55.299988" target-width="141.60004" target-x="665.6" target-y="555"></path><path d="M 573.10 365.90 L 523.20 452.40 L 538.80 510.50 L 631.30 350.20 L 573.10 365.90 Z" fill="url(#SVGID_24_)" fill-rule="evenodd" group-id="1,2,6" node-id="996" stroke="none" target-height="160.29999" target-width="108.099976" target-x="523.2" target-y="350.2"></path></g><g node-id="1164"><path d="M 898.30 694.70 C 898.30 692.10 896.20 690.10 893.70 690.10 C 893.70 690.10 893.70 690.10 893.70 690.10 L 586.90 690.10 C 584.30 690.10 582.30 692.20 582.30 694.70 C 582.30 694.70 582.30 694.70 582.30 694.70 L 582.30 705.10 C 582.30 707.70 584.40 709.70 586.90 709.70 C 586.90 709.70 586.90 709.70 586.90 709.70 L 893.70 709.70 C 896.30 709.70 898.30 707.60 898.30 705.10 C 898.30 705.10 898.30 705.10 898.30 705.10 L 898.30 694.70 Z" fill="url(#SVGID_25_)" fill-rule="evenodd" group-id="1,2,7" node-id="1000" stroke="none" target-height="19.600037" target-width="316" target-x="582.3" target-y="690.1"></path><path d="M 864.70 541.50 C 864.70 536.00 860.30 531.60 854.80 531.60 L 854.80 531.60 L 625.80 531.60 C 620.30 531.60 615.90 536.00 615.90 541.50 C 615.90 541.50 615.90 541.50 615.90 541.50 L 615.90 690.10 L 864.60 690.10 L 864.60 541.50 Z" fill="url(#SVGID_26_)" fill-rule="evenodd" group-id="1,2,7" node-id="1002" stroke="none" target-height="158.5" target-width="248.79999" target-x="615.9" target-y="531.6"></path><path d="M 631.70 547.40 L 848.80 547.40 L 848.80 680.10 L 631.70 680.10 Z" fill="url(#SVGID_27_)" fill-rule="nonzero" group-id="1,2,7" node-id="1004" stroke="none" target-height="132.69995" target-width="217.09998" target-x="631.7" target-y="547.4"></path><path d="M 654.00 680.10 L 631.80 667.30 L 631.80 547.40 L 751.10 547.40 L 848.90 603.80 L 848.90 680.10 L 654.00 680.10 Z" fill="url(#SVGID_28_)" fill-rule="evenodd" group-id="1,2,7" node-id="1006" stroke="none" target-height="132.69995" target-width="217.10004" target-x="631.8" target-y="547.4"></path><path d="M 631.70 589.40 L 788.80 680.10 L 631.70 680.10 L 631.70 589.40 Z" fill="url(#SVGID_29_)" fill-rule="evenodd" group-id="1,2,7" node-id="1008" stroke="none" target-height="90.69995" target-width="157.09998" target-x="631.7" target-y="589.4"></path></g><g node-id="1165"><path d="M 727.10 554.90 C 732.80 559.40 733.90 567.50 729.70 573.40 C 702.50 609.70 675.20 645.90 647.80 682.10 C 643.30 687.80 635.20 688.90 629.30 684.70 C 601.00 663.50 572.80 642.30 544.70 620.90 C 539.10 616.40 538.00 608.40 542.10 602.50 C 569.30 566.20 596.60 529.90 624.00 493.80 C 628.50 488.20 636.60 487.00 642.50 491.20 C 670.80 512.30 699.00 533.50 727.10 554.90 Z" fill="url(#SVGID_30_)" fill-rule="evenodd" group-id="1,2,8" node-id="1012" stroke="none" target-height="201.90002" target-width="195.90002" target-x="538" target-y="487"></path><path d="M 637.80 505.50 C 636.20 504.40 633.90 504.70 632.70 506.20 C 605.30 542.40 583.10 570.40 556.60 607.20 C 555.50 608.80 555.80 611.00 557.30 612.20 C 585.20 633.90 605.60 649.60 634.30 670.20 C 635.90 671.30 638.10 671.00 639.30 669.40 C 666.70 633.30 688.90 605.20 715.40 568.40 C 716.50 566.80 716.20 564.60 714.60 563.40 C 686.50 542.10 666.00 526.70 637.80 505.50 L 637.80 505.50 Z" fill="url(#SVGID_31_)" fill-rule="evenodd" group-id="1,2,8" node-id="1014" stroke="none" target-height="166.9" target-width="161" target-x="555.5" target-y="504.4"></path><path d="M 621.60 520.70 L 668.50 631.10 C 659.20 643.30 649.60 655.70 639.30 669.30 C 638.10 670.80 635.90 671.20 634.30 670.10 C 605.60 649.50 585.20 633.80 557.30 612.10 C 555.80 610.90 555.50 608.70 556.60 607.10 C 579.40 575.50 599.10 550.20 621.60 520.70 L 621.60 520.70 Z" fill="url(#SVGID_32_)" fill-rule="evenodd" group-id="1,2,8" node-id="1016" stroke="none" target-height="150.5" target-width="113" target-x="555.5" target-y="520.7"></path><path d="M 669.60 511.40 L 603.70 520.60 L 583.70 547.00 L 696.00 531.30 L 669.60 511.40 Z" fill="url(#SVGID_33_)" fill-rule="evenodd" group-id="1,2,8" node-id="1018" stroke="none" target-height="35.600006" target-width="112.29999" target-x="583.7" target-y="511.4"></path></g><g node-id="1166"><path d="M 476.50 534.70 C 467.20 535.00 459.80 542.40 459.50 551.70 C 459.50 562.70 459.50 573.60 459.50 584.60 C 459.60 594.80 464.60 604.30 473.00 610.20 C 478.20 613.70 484.30 615.60 490.50 615.60 L 508.40 615.60 L 508.40 604.00 L 492.70 604.00 C 480.90 603.70 471.40 594.20 471.00 582.30 C 471.00 571.20 470.90 565.00 471.00 554.00 C 471.20 549.70 474.60 546.30 478.90 546.20 L 496.00 546.20 L 496.00 534.60 L 476.50 534.70 Z" fill="url(#SVGID_34_)" fill-rule="evenodd" group-id="1,2,9" node-id="1022" stroke="none" target-height="81" target-width="48.899994" target-x="459.5" target-y="534.6"></path><path d="M 480.80 690.70 L 584.70 690.70 L 584.70 702.30 C 584.70 706.40 581.40 709.70 577.30 709.70 L 488.20 709.70 C 484.10 709.70 480.80 706.40 480.80 702.30 L 480.80 690.70 L 480.80 690.70 Z" fill="url(#SVGID_35_)" fill-rule="evenodd" group-id="1,2,9" node-id="1024" stroke="none" target-height="19" target-width="103.900024" target-x="480.8" target-y="690.7"></path><path d="M 515.40 709.70 C 515.40 703.30 519.10 698.20 523.60 698.20 L 542.00 698.20 C 546.50 698.20 550.20 703.30 550.20 709.70 L 515.40 709.70 Z" fill="#152873" fill-rule="evenodd" group-id="1,2,9" node-id="1026" stroke="none" target-height="11.5" target-width="34.799988" target-x="515.4" target-y="698.2"></path><path d="M 503.00 627.10 L 562.50 627.10 L 562.50 642.60 L 503.00 642.60 Z" fill="url(#SVGID_36_)" fill-rule="nonzero" group-id="1,2,9" node-id="1028" stroke="none" target-height="15.5" target-width="59.5" target-x="503" target-y="627.1"></path><path d="M 480.80 517.10 C 480.80 512.80 484.30 509.40 488.50 509.40 L 577.00 509.40 C 581.30 509.40 584.70 512.90 584.70 517.10 L 584.70 517.10 C 584.70 521.40 581.20 524.80 577.00 524.80 L 488.50 524.80 C 484.20 524.80 480.80 521.30 480.80 517.10 Z" fill="url(#SVGID_37_)" fill-rule="evenodd" group-id="1,2,9" node-id="1030" stroke="none" target-height="15.399994" target-width="103.900024" target-x="480.8" target-y="509.4"></path><path d="M 508.40 509.30 C 508.40 504.30 512.40 500.30 517.40 500.30 L 517.40 500.30 L 548.10 500.30 C 553.10 500.30 557.10 504.30 557.10 509.30 L 508.40 509.30 Z" fill="url(#SVGID_38_)" fill-rule="evenodd" group-id="1,2,9" node-id="1032" stroke="none" target-height="9" target-width="48.69998" target-x="508.4" target-y="500.3"></path><path d="M 488.60 524.90 L 576.90 524.90 L 576.90 577.90 C 576.90 595.30 571.90 612.40 562.50 627.10 L 503.00 627.10 C 493.60 612.40 488.60 595.40 488.60 577.90 L 488.60 524.90 L 488.60 524.90 Z" fill="url(#SVGID_39_)" fill-rule="evenodd" group-id="1,2,9" node-id="1034" stroke="none" target-height="102.19995" target-width="88.30002" target-x="488.6" target-y="524.9"></path><path d="M 488.60 539.00 L 576.20 589.60 C 574.50 603.00 569.80 615.80 562.50 627.20 L 503.00 627.20 C 493.60 612.50 488.60 595.50 488.60 578.10 L 488.60 539.00 L 488.60 539.00 Z" fill="url(#SVGID_40_)" fill-rule="evenodd" group-id="1,2,9" node-id="1036" stroke="none" target-height="88.20001" target-width="87.600006" target-x="488.6" target-y="539"></path><path d="M 480.80 690.70 L 584.70 690.70 C 584.70 690.70 575.30 659.90 571.50 647.50 C 570.60 644.50 567.80 642.50 564.70 642.50 L 500.80 642.50 C 497.70 642.50 494.90 644.50 494.00 647.50 L 480.80 690.70 Z" fill="url(#SVGID_41_)" fill-rule="evenodd" group-id="1,2,9" node-id="1038" stroke="none" target-height="48.200012" target-width="103.900024" target-x="480.8" target-y="642.5"></path><path d="M 547.20 666.60 C 547.20 674.61 540.71 681.10 532.70 681.10 C 524.69 681.10 518.20 674.61 518.20 666.60 C 518.20 658.59 524.69 652.10 532.70 652.10 C 540.71 652.10 547.20 658.59 547.20 666.60 Z" fill="url(#SVGID_42_)" fill-rule="nonzero" group-id="1,2,9" node-id="1040" stroke="none" target-height="29" target-width="29" target-x="518.2" target-y="652.1"></path><path d="M 534.70 650.80 C 535.50 650.80 536.20 651.50 536.20 652.30 C 536.20 652.30 536.20 652.30 536.20 652.30 L 536.20 665.20 C 536.20 666.00 535.50 666.70 534.70 666.70 C 534.70 666.70 534.70 666.70 534.70 666.70 L 530.80 666.70 C 530.00 666.70 529.30 666.00 529.30 665.20 C 529.30 665.20 529.30 665.20 529.30 665.20 L 529.30 652.30 C 529.30 651.50 530.00 650.80 530.80 650.80 C 530.80 650.80 530.80 650.80 530.80 650.80 L 534.70 650.80 Z" fill="url(#SVGID_43_)" fill-rule="evenodd" group-id="1,2,9" node-id="1042" stroke="none" target-height="15.900024" target-width="6.9000244" target-x="529.3" target-y="650.8"></path></g><g node-id="1167"><path d="M 818.10 577.70 C 814.20 574.40 808.40 574.80 805.10 578.60 C 805.10 578.60 805.10 578.60 805.10 578.60 C 796.80 588.20 782.00 605.30 773.70 614.90 C 770.40 618.80 770.80 624.60 774.60 627.90 C 774.60 627.90 774.60 627.90 774.60 627.90 L 843.10 687.20 C 847.00 690.60 852.80 690.10 856.10 686.30 C 856.10 686.30 856.10 686.30 856.10 686.20 L 887.50 649.90 C 890.80 646.00 890.40 640.20 886.60 636.90 C 886.60 636.90 886.60 636.90 886.60 636.90 L 818.10 577.70 Z" fill="url(#SVGID_44_)" fill-rule="evenodd" group-id="1,2,10" node-id="1046" stroke="none" target-height="116.19995" target-width="120.39996" target-x="770.4" target-y="574.4"></path><path d="M 810.00 587.50 C 810.50 586.90 811.30 586.50 812.10 586.40 C 812.90 586.30 813.70 586.60 814.30 587.10 L 877.60 641.90 C 878.20 642.40 878.60 643.20 878.70 644.00 C 878.80 644.80 878.50 645.60 877.90 646.20 L 851.00 677.30 C 850.50 677.90 849.70 678.30 848.90 678.40 C 848.10 678.40 847.30 678.20 846.70 677.60 L 783.40 623.00 C 782.80 622.50 782.40 621.70 782.30 620.90 C 782.20 620.10 782.50 619.30 783.10 618.60 L 787.40 613.60 C 788.00 612.90 788.90 612.50 789.90 612.50 L 792.90 612.60 C 793.90 612.70 794.80 612.30 795.40 611.50 L 804.90 600.50 C 805.50 599.80 805.80 598.80 805.60 597.90 C 805.40 597.00 805.20 595.90 805.00 595.00 C 804.80 594.10 805.10 593.10 805.70 592.40 L 810.00 587.50 L 810.00 587.50 Z" fill="url(#SVGID_45_)" fill-rule="evenodd" group-id="1,2,10" node-id="1048" stroke="none" target-height="92.10004" target-width="96.599976" target-x="782.2" target-y="586.3"></path><path d="M 808.10 644.30 L 859.70 626.40 L 877.90 642.20 C 879.00 643.20 879.20 644.90 878.20 646.10 L 850.90 677.70 C 849.90 678.80 848.20 679.00 847.00 678.00 L 808.10 644.30 Z" fill="url(#SVGID_46_)" fill-rule="evenodd" group-id="1,2,10" node-id="1050" stroke="none" target-height="52.599976" target-width="71.10004" target-x="808.1" target-y="626.4"></path></g><g node-id="1168"><path d="M 746.50 613.20 L 766.10 613.20 C 766.60 613.20 767.10 613.40 767.40 613.80 C 767.70 614.10 767.90 614.60 767.90 615.10 L 767.90 618.40 L 746.50 618.40 L 746.50 613.20 Z" fill="url(#SVGID_47_)" fill-rule="evenodd" group-id="1,2,11" node-id="1054" stroke="none" target-height="5.200012" target-width="21.400024" target-x="746.5" target-y="613.2"></path><path d="M 736.30 611.70 L 755.90 611.70 C 756.90 611.70 757.70 612.50 757.70 613.50 L 757.70 618.30 L 736.30 618.30 L 736.30 611.70 Z" fill="url(#SVGID_48_)" fill-rule="evenodd" group-id="1,2,11" node-id="1056" stroke="none" target-height="6.5999756" target-width="21.400024" target-x="736.3" target-y="611.7"></path><path d="M 648.10 628.90 L 683.00 628.90 L 683.00 690.10 L 655.50 690.10 C 651.40 690.10 648.10 686.80 648.10 682.70 L 648.10 628.90 L 648.10 628.90 Z" fill="url(#SVGID_49_)" fill-rule="evenodd" group-id="1,2,11" node-id="1058" stroke="none" target-height="61.19995" target-width="34.900024" target-x="648.1" target-y="628.9"></path><path d="M 648.10 619.10 C 648.10 615.00 651.40 611.70 655.50 611.70 L 683.00 611.70 L 683.00 628.90 L 648.10 628.90 L 648.10 619.10 Z" fill="url(#SVGID_50_)" fill-rule="evenodd" group-id="1,2,11" node-id="1060" stroke="none" target-height="17.200012" target-width="34.900024" target-x="648.1" target-y="611.7"></path><path d="M 675.80 628.90 L 772.80 628.90 L 772.80 682.70 C 772.80 686.80 769.50 690.10 765.40 690.10 L 683.20 690.10 C 679.10 690.10 675.80 686.80 675.80 682.70 L 675.80 628.90 L 675.80 628.90 Z" fill="url(#SVGID_51_)" fill-rule="evenodd" group-id="1,2,11" node-id="1062" stroke="none" target-height="61.19995" target-width="97" target-x="675.8" target-y="628.9"></path><path d="M 675.80 619.10 C 675.80 615.00 679.10 611.70 683.20 611.70 L 739.60 611.70 C 741.30 611.70 742.80 612.60 743.60 614.10 L 744.60 615.90 C 745.40 617.40 746.90 618.30 748.60 618.30 L 765.40 618.30 C 769.50 618.30 772.80 621.60 772.80 625.70 L 772.80 628.80 L 675.80 628.80 L 675.80 619.10 Z" fill="url(#SVGID_52_)" fill-rule="evenodd" group-id="1,2,11" node-id="1064" stroke="none" target-height="17.099976" target-width="97" target-x="675.8" target-y="611.7"></path><g node-id="1177"><path d="M 686.70 651.10 C 686.70 647.70 689.50 644.90 692.90 644.90 L 699.80 644.90 L 699.80 663.70 L 692.90 663.70 C 689.50 663.70 686.70 660.90 686.70 657.50 L 686.70 651.10 Z" fill="url(#SVGID_53_)" fill-rule="evenodd" group-id="1,2,11,20" node-id="1067" stroke="none" target-height="18.799988" target-width="13.099976" target-x="686.7" target-y="644.9"></path><path d="M 726.70 690.10 L 745.50 690.10 L 745.50 618.40 L 726.70 618.40 C 709.50 618.40 695.50 634.50 695.50 654.20 C 695.50 673.90 709.50 690.10 726.70 690.10 Z" fill="url(#SVGID_54_)" fill-rule="evenodd" group-id="1,2,11,20" node-id="1069" stroke="none" target-height="71.69995" target-width="50" target-x="695.5" target-y="618.4"></path><path d="M 776.80 654.20 C 776.80 674.03 762.83 690.10 745.60 690.10 C 728.37 690.10 714.40 674.03 714.40 654.20 C 714.40 634.37 728.37 618.30 745.60 618.30 C 762.83 618.30 776.80 634.37 776.80 654.20 Z" fill="url(#SVGID_55_)" fill-rule="nonzero" group-id="1,2,11,20" node-id="1071" stroke="none" target-height="71.79999" target-width="62.399963" target-x="714.4" target-y="618.3"></path><path d="M 767.70 654.20 C 767.70 668.17 757.81 679.50 745.60 679.50 C 733.39 679.50 723.50 668.17 723.50 654.20 C 723.50 640.23 733.39 628.90 745.60 628.90 C 757.81 628.90 767.70 640.23 767.70 654.20 Z" fill="url(#SVGID_56_)" fill-rule="nonzero" group-id="1,2,11,20" node-id="1073" stroke="none" target-height="50.599976" target-width="44.200012" target-x="723.5" target-y="628.9"></path><path d="M 758.00 654.20 C 758.00 662.04 752.45 668.40 745.60 668.40 C 738.75 668.40 733.20 662.04 733.20 654.20 C 733.20 646.36 738.75 640.00 745.60 640.00 C 752.45 640.00 758.00 646.36 758.00 654.20 Z" fill="url(#SVGID_57_)" fill-rule="nonzero" group-id="1,2,11,20" node-id="1075" stroke="none" target-height="28.400024" target-width="24.799988" target-x="733.2" target-y="640"></path></g></g><g node-id="1169"><path d="M 479.20 875.40 L 457.80 920.00 C 457.30 921.10 457.40 922.40 458.00 923.50 C 458.70 924.50 459.80 925.20 461.00 925.20 L 477.40 925.20 C 480.20 925.20 482.70 923.60 483.90 921.10 L 505.10 875.50 L 479.20 875.50 Z" fill="url(#SVGID_58_)" fill-rule="evenodd" group-id="1,2,12" node-id="1080" stroke="none" target-height="49.799988" target-width="47.80002" target-x="457.3" target-y="875.4"></path><path d="M 470.90 883.20 C 486.90 883.20 499.80 897.40 499.80 914.80 C 499.80 932.20 486.90 946.40 470.90 946.40 L 455.90 946.40 L 455.90 883.20 L 470.90 883.20 Z" fill="#152873" fill-rule="evenodd" group-id="1,2,12" node-id="1082" stroke="none" target-height="63.200012" target-width="43.899994" target-x="455.9" target-y="883.2"></path><path d="M 484.80 914.80 C 484.80 932.25 471.86 946.40 455.90 946.40 C 439.94 946.40 427.00 932.25 427.00 914.80 C 427.00 897.35 439.94 883.20 455.90 883.20 C 471.86 883.20 484.80 897.35 484.80 914.80 Z" fill="url(#SVGID_59_)" fill-rule="nonzero" group-id="1,2,12" node-id="1084" stroke="none" target-height="63.200012" target-width="57.799988" target-x="427" target-y="883.2"></path><path d="M 460.30 875.40 L 439.00 920.00 C 438.10 921.80 438.90 923.90 440.70 924.80 C 441.20 925.00 441.70 925.20 442.30 925.20 L 458.70 925.20 C 461.50 925.20 464.00 923.60 465.20 921.10 C 470.70 909.20 486.40 875.50 486.40 875.50 L 460.30 875.50 Z" fill="url(#SVGID_60_)" fill-rule="evenodd" group-id="1,2,12" node-id="1086" stroke="none" target-height="49.799988" target-width="48.299988" target-x="438.1" target-y="875.4"></path><path d="M 652.10 875.40 L 630.80 920.00 C 629.90 921.80 630.70 923.90 632.50 924.80 C 633.00 925.00 633.50 925.20 634.10 925.20 L 650.50 925.20 C 653.30 925.20 655.80 923.60 657.00 921.10 C 662.50 909.20 678.20 875.50 678.20 875.50 L 652.10 875.50 Z" fill="url(#SVGID_61_)" fill-rule="evenodd" group-id="1,2,12" node-id="1088" stroke="none" target-height="49.799988" target-width="48.299988" target-x="629.9" target-y="875.4"></path><path d="M 643.90 883.20 C 659.80 883.20 672.80 897.40 672.80 914.80 C 672.80 932.20 659.90 946.40 643.90 946.40 L 628.90 946.40 L 628.90 883.20 L 643.90 883.20 Z" fill="#152873" fill-rule="evenodd" group-id="1,2,12" node-id="1090" stroke="none" target-height="63.200012" target-width="43.899963" target-x="628.9" target-y="883.2"></path><path d="M 657.70 914.80 C 657.70 932.25 644.76 946.40 628.80 946.40 C 612.84 946.40 599.90 932.25 599.90 914.80 C 599.90 897.35 612.84 883.20 628.80 883.20 C 644.76 883.20 657.70 897.35 657.70 914.80 Z" fill="url(#SVGID_62_)" fill-rule="nonzero" group-id="1,2,12" node-id="1092" stroke="none" target-height="63.200012" target-width="57.799988" target-x="599.9" target-y="883.2"></path><path d="M 633.30 875.40 L 612.00 920.00 C 611.10 921.80 611.90 923.90 613.60 924.80 C 614.10 925.00 614.60 925.20 615.20 925.20 L 631.60 925.20 C 634.40 925.20 636.90 923.60 638.10 921.10 C 643.60 909.20 659.30 875.50 659.30 875.50 L 633.30 875.50 Z" fill="url(#SVGID_63_)" fill-rule="evenodd" group-id="1,2,12" node-id="1094" stroke="none" target-height="49.799988" target-width="48.200012" target-x="611.1" target-y="875.4"></path><path d="M 834.90 875.40 L 813.60 920.00 C 812.70 921.80 813.50 923.90 815.30 924.80 C 815.80 925.00 816.30 925.20 816.90 925.20 L 833.30 925.20 C 836.10 925.20 838.60 923.60 839.80 921.10 C 845.30 909.20 861.00 875.50 861.00 875.50 L 834.90 875.50 Z" fill="url(#SVGID_64_)" fill-rule="evenodd" group-id="1,2,12" node-id="1096" stroke="none" target-height="49.799988" target-width="48.299988" target-x="812.7" target-y="875.4"></path><path d="M 826.60 883.20 C 842.50 883.20 855.50 897.40 855.50 914.80 C 855.50 932.20 842.60 946.40 826.60 946.40 L 811.60 946.40 L 811.60 883.20 L 826.60 883.20 Z" fill="#152873" fill-rule="evenodd" group-id="1,2,12" node-id="1098" stroke="none" target-height="63.200012" target-width="43.900024" target-x="811.6" target-y="883.2"></path><path d="M 840.50 914.80 C 840.50 932.25 827.56 946.40 811.60 946.40 C 795.64 946.40 782.70 932.25 782.70 914.80 C 782.70 897.35 795.64 883.20 811.60 883.20 C 827.56 883.20 840.50 897.35 840.50 914.80 Z" fill="url(#SVGID_65_)" fill-rule="nonzero" group-id="1,2,12" node-id="1100" stroke="none" target-height="63.200012" target-width="57.799988" target-x="782.7" target-y="883.2"></path><path d="M 816.10 875.40 L 794.80 920.00 C 793.90 921.80 794.70 923.90 796.50 924.80 C 797.00 925.00 797.50 925.20 798.10 925.20 L 814.50 925.20 C 817.30 925.20 819.80 923.60 821.00 921.10 C 826.50 909.20 842.20 875.50 842.20 875.50 L 816.10 875.50 Z" fill="url(#SVGID_66_)" fill-rule="evenodd" group-id="1,2,12" node-id="1102" stroke="none" target-height="49.799988" target-width="48.299988" target-x="793.9" target-y="875.4"></path><path d="M 583.50 495.10 L 583.50 708.70" fill="none" group-id="1,2,12" node-id="1104" stroke="none" target-height="213.6" target-width="0" target-x="583.5" target-y="495.1"></path><path d="M 445.80 564.00 L 794.80 564.00" fill="none" group-id="1,2,12" node-id="1106" stroke="none" target-height="0" target-width="349" target-x="445.8" target-y="564"></path><path d="M 460.20 641.30 L 772.80 641.30" fill="none" group-id="1,2,12" node-id="1108" stroke="none" target-height="0" target-width="312.59998" target-x="460.2" target-y="641.3"></path><path d="M 498.50 485.60 L 498.50 708.70" fill="none" group-id="1,2,12" node-id="1110" stroke="none" target-height="223.1" target-width="0" target-x="498.5" target-y="485.6"></path><path d="M 668.50 504.60 L 668.50 708.70" fill="none" group-id="1,2,12" node-id="1112" stroke="none" target-height="204.1" target-width="0" target-x="668.5" target-y="504.6"></path><path d="M 753.40 514.20 L 753.40 708.70" fill="none" group-id="1,2,12" node-id="1114" stroke="none" target-height="194.5" target-width="0" target-x="753.4" target-y="514.2"></path><path d="M 487.30 487.90 L 429.30 480.50 L 428.50 480.20 C 427.90 479.70 427.70 479.70 427.40 478.90 C 427.00 477.70 427.30 476.40 428.30 475.60 C 428.70 475.30 429.30 475.10 429.90 475.20 L 760.30 517.50 C 760.80 517.60 761.30 517.90 761.70 518.30 C 762.10 518.80 762.30 519.40 762.30 520.00 C 762.30 520.30 762.30 520.60 762.20 520.90 L 715.00 709.40 L 715.00 709.40 C 714.90 709.70 714.80 710.00 714.60 710.20 C 714.50 710.50 714.30 710.70 714.00 710.80 C 713.50 711.10 713.00 711.30 712.40 711.20 C 711.80 711.10 711.20 710.80 710.90 710.30 C 710.70 710.10 710.60 709.90 710.50 709.70 C 710.40 709.40 710.30 709.10 710.40 708.80 L 710.40 643.90 L 640.80 643.90 L 640.80 708.70 C 640.80 709.30 640.60 709.90 640.20 710.40 C 639.50 711.40 638.10 711.60 637.10 710.90 C 636.90 710.80 636.80 710.60 636.60 710.40 C 636.20 709.90 636.00 709.30 636.00 708.70 L 636.00 643.90 L 566.30 643.90 L 566.30 708.70 C 566.30 709.30 566.10 709.90 565.70 710.40 C 565.00 711.40 563.60 711.60 562.60 710.90 C 562.40 710.80 562.30 710.60 562.10 710.40 C 561.70 709.90 561.50 709.30 561.50 708.70 L 561.50 643.90 L 492.00 643.90 L 492.00 708.70 C 492.00 709.30 491.80 709.90 491.50 710.40 C 490.80 711.40 489.40 711.70 488.40 711.00 C 488.20 710.80 488.00 710.70 487.80 710.40 C 487.40 709.90 487.20 709.30 487.20 708.70 L 487.20 643.90 L 456.00 643.90 C 455.30 643.80 455.10 643.90 454.50 643.30 C 453.40 642.10 453.40 640.40 454.50 639.20 C 454.90 638.80 455.40 638.60 456.00 638.60 L 487.20 638.60 L 487.20 566.80 L 443.50 566.80 C 442.80 566.70 442.60 566.80 442.00 566.20 C 441.00 565.00 441.00 563.30 442.00 562.10 C 442.40 561.70 442.90 561.50 443.50 561.50 L 487.30 561.50 L 487.30 487.90 Z M 715.00 643.90 L 715.00 689.60 L 726.40 643.90 L 715.00 643.90 Z M 745.80 566.70 L 715.00 566.70 L 715.00 638.50 L 727.80 638.50 L 745.80 566.70 Z M 492.00 566.70 L 492.00 638.50 L 561.70 638.50 L 561.70 566.70 L 492.00 566.70 Z M 566.30 566.70 L 566.30 638.50 L 636.00 638.50 L 636.00 566.70 L 566.30 566.70 Z M 640.70 566.70 L 640.70 638.50 L 710.40 638.50 L 710.40 566.70 L 640.70 566.70 Z M 715.00 517.20 L 715.00 561.30 L 747.10 561.30 L 756.80 522.50 L 715.00 517.20 L 715.00 517.20 Z M 492.00 561.30 L 561.70 561.30 L 561.70 497.50 L 492.00 488.60 L 492.00 561.30 Z M 566.30 561.30 L 636.00 561.30 L 636.00 507.00 L 566.30 498.10 L 566.30 561.30 Z M 640.70 561.30 L 710.40 561.30 L 710.40 516.60 L 640.70 507.70 L 640.70 561.30 Z" fill="#ffffff" fill-rule="evenodd" group-id="1,2,12" node-id="1116" stroke="none" target-height="236.6" target-width="335.3" target-x="427" target-y="475.1"></path><path d="M 460.20 708.70 L 474.80 728.70 C 474.80 728.70 451.70 801.70 445.10 822.40 C 444.00 825.80 444.60 829.60 446.70 832.50 L 459.60 850.60 C 461.80 853.60 465.20 855.40 468.90 855.40 L 685.30 855.40 C 690.80 855.40 695.30 859.90 695.30 865.40 L 695.30 865.40 L 695.30 865.40 C 695.30 870.90 690.80 875.40 685.30 875.40 L 458.70 875.40 C 455.00 875.40 451.60 873.60 449.50 870.60 C 443.40 862.10 430.80 844.40 424.80 836.00 C 422.70 833.10 422.10 829.30 423.20 825.90 C 430.70 802.10 460.30 708.70 460.20 708.70 L 460.20 708.70 Z" fill="url(#SVGID_67_)" fill-rule="evenodd" group-id="1,2,12" node-id="1118" stroke="none" target-height="166.70001" target-width="273.19998" target-x="422.1" target-y="708.7"></path><g node-id="1178"><path d="M 864.50 517.70 C 850.80 529.40 846.00 547.00 845.00 550.70 L 862.30 555.30 L 862.50 554.60 C 866.00 541.70 873.60 530.30 884.20 522.10 C 886.60 520.40 889.10 518.90 891.80 517.60 L 864.50 517.60 Z" fill="url(#SVGID_68_)" fill-rule="evenodd" group-id="1,2,12,21" node-id="1121" stroke="none" target-height="37.700012" target-width="46.799988" target-x="845" target-y="517.6"></path><path d="M 860.90 517.70 C 856.30 522.00 852.50 526.90 849.30 532.40 C 846.20 537.90 843.70 543.80 842.10 549.90 L 846.90 551.20 C 846.90 551.00 847.00 550.80 847.10 550.50 C 850.60 537.60 858.10 526.20 868.70 518.00 L 869.20 517.60 L 860.90 517.60 Z" fill="url(#SVGID_69_)" fill-rule="evenodd" group-id="1,2,12,21" node-id="1123" stroke="none" target-height="33.600037" target-width="27.100037" target-x="842.1" target-y="517.6"></path><path d="M 836.80 604.30 L 846.70 607.00 L 862.00 549.70 L 852.10 547.00 C 840.20 543.80 827.10 554.10 822.90 569.80 C 818.70 585.70 824.90 601.20 836.80 604.30 Z" fill="url(#SVGID_70_)" fill-rule="evenodd" group-id="1,2,12,21" node-id="1125" stroke="none" target-height="63.200012" target-width="43.299988" target-x="818.7" target-y="543.8"></path><path d="M 840.50 605.40 L 850.40 608.10 L 865.70 550.80 L 855.80 548.10 C 843.90 544.90 830.80 555.10 826.60 570.90 C 822.40 586.70 828.60 602.20 840.50 605.40 Z" fill="url(#SVGID_71_)" fill-rule="evenodd" group-id="1,2,12,21" node-id="1127" stroke="none" target-height="63.19995" target-width="43.299988" target-x="822.4" target-y="544.9"></path><path d="M 865.70 550.70 C 853.80 547.50 840.70 557.70 836.50 573.50 C 832.30 589.30 838.50 604.70 850.40 607.90 C 862.30 611.10 875.40 600.80 879.60 585.00 C 883.80 569.30 877.60 554.00 865.70 550.70 Z" fill="url(#SVGID_72_)" fill-rule="evenodd" group-id="1,2,12,21" node-id="1129" stroke="none" target-height="63.599976" target-width="51.5" target-x="832.3" target-y="547.5"></path><path d="M 864.60 563.10 C 858.00 561.30 850.60 567.40 848.10 576.70 C 845.60 586.00 848.90 595.00 855.50 596.80 C 862.10 598.60 869.50 592.50 872.00 583.20 C 874.40 573.80 871.20 564.90 864.60 563.10 Z" fill="url(#SVGID_73_)" fill-rule="evenodd" group-id="1,2,12,21" node-id="1131" stroke="none" target-height="37.299988" target-width="28.800049" target-x="845.6" target-y="561.3"></path></g><path d="M 879.90 517.70 L 880.00 517.30 L 881.00 517.40 L 881.90 517.50 L 882.30 517.60 L 942.30 517.60 L 942.30 522.90 L 883.40 522.90 L 873.80 561.10 L 933.30 561.10 L 933.30 566.50 L 872.50 566.50 L 854.60 638.40 L 913.20 638.40 L 913.20 643.80 L 853.10 643.80 L 836.70 709.40 L 836.70 709.40 C 836.60 709.70 836.50 710.00 836.30 710.20 C 836.20 710.40 836.00 710.70 835.70 710.80 C 835.20 711.10 834.70 711.30 834.10 711.20 C 833.20 711.10 832.50 710.40 832.30 709.50 C 832.20 709.20 832.10 708.90 832.20 708.60 L 832.20 708.20 L 848.30 643.80 L 792.20 643.80 L 775.80 709.40 L 775.80 709.40 C 775.70 709.70 775.60 710.00 775.40 710.20 C 775.30 710.50 775.10 710.70 774.80 710.80 C 774.40 711.10 773.80 711.30 773.20 711.20 C 772.60 711.10 772.00 710.80 771.70 710.30 C 771.50 710.10 771.40 709.90 771.30 709.70 C 771.20 709.40 771.10 709.10 771.20 708.80 L 771.20 708.40 L 787.30 644.00 L 689.50 644.00 L 689.50 638.60 L 788.60 638.60 L 806.60 566.80 L 730.20 566.80 L 730.20 561.40 L 808.00 561.40 L 817.60 523.10 L 758.60 523.10 L 758.60 517.70 L 879.90 517.70 Z M 811.50 566.70 L 793.60 638.50 L 849.60 638.50 L 867.50 566.70 L 811.50 566.70 Z M 822.40 523.10 L 812.80 561.30 L 868.80 561.30 L 878.50 523.00 L 822.40 523.10 Z" fill="#ffffff" fill-rule="evenodd" group-id="1,2,12" node-id="1134" stroke="none" target-height="194" target-width="252.79999" target-x="689.5" target-y="517.3"></path><path d="M 689.60 708.70 L 894.70 708.70 C 900.20 708.70 904.70 713.20 904.70 718.70 L 904.70 718.70 C 904.70 724.20 900.20 728.70 894.70 728.70 L 689.60 728.70 L 689.60 708.70 Z" fill="url(#SVGID_74_)" fill-rule="evenodd" group-id="1,2,12" node-id="1136" stroke="none" target-height="20" target-width="215.10004" target-x="689.6" target-y="708.7"></path><path d="M 382.90 438.30 L 412.50 441.90 C 419.00 442.70 424.20 447.60 425.40 454.10 C 434.60 504.00 472.70 708.70 472.70 708.70 L 712.00 708.70 C 717.50 708.70 722.00 713.20 722.00 718.70 L 722.00 718.70 C 722.00 724.20 717.50 728.70 712.00 728.70 L 468.60 728.70 C 461.40 728.70 455.10 723.50 453.80 716.40 C 445.00 669.00 413.50 499.30 407.50 466.70 C 406.90 463.50 404.30 461.00 401.00 460.60 L 382.90 458.40 L 382.90 438.30 Z" fill="url(#SVGID_75_)" fill-rule="evenodd" group-id="1,2,12" node-id="1138" stroke="none" target-height="290.40002" target-width="339.1" target-x="382.9" target-y="438.3"></path><path d="M 382.90 458.50 L 364.30 456.20 L 364.30 436.20 L 385.50 438.80 L 382.90 458.50 L 382.90 458.50 Z" fill="url(#SVGID_76_)" fill-rule="evenodd" group-id="1,2,12" node-id="1140" stroke="none" target-height="22.299988" target-width="21.200012" target-x="364.3" target-y="436.2"></path><path d="M 364.20 436.20 C 369.80 436.20 374.30 440.70 374.30 446.30 C 374.30 451.90 369.80 456.40 364.20 456.40 C 358.60 456.40 354.10 451.90 354.10 446.30 C 354.10 446.30 354.10 446.30 354.10 446.30 C 354.20 440.70 358.70 436.20 364.20 436.20 Z" fill="url(#SVGID_77_)" fill-rule="evenodd" group-id="1,2,12" node-id="1142" stroke="none" target-height="20.199982" target-width="20.199982" target-x="354.1" target-y="436.2"></path></g><g node-id="1170"><path d="M 915.70 625.50 L 925.60 628.10 L 940.90 570.80 L 931.00 568.20 C 919.10 565.00 906.00 575.20 901.80 591.00 C 897.60 606.90 903.90 622.30 915.70 625.50 L 915.70 625.50 Z" fill="url(#SVGID_78_)" fill-rule="evenodd" group-id="1,2,13" node-id="1146" stroke="none" target-height="63.099976" target-width="43.30005" target-x="897.6" target-y="565"></path><path d="M 891.70 517.70 C 898.00 514.70 905.10 513.50 912.00 514.20 L 904.80 508.00 C 886.50 504.90 873.60 510.00 864.50 517.70 L 891.70 517.70 Z" fill="url(#SVGID_79_)" fill-rule="evenodd" group-id="1,2,13" node-id="1148" stroke="none" target-height="12.800018" target-width="47.5" target-x="864.5" target-y="504.9"></path><path d="M 912.00 514.20 C 916.50 514.70 938.40 527.60 930.70 573.60 L 948.20 578.30 C 954.40 554.90 948.20 529.20 932.60 516.40 C 928.30 512.90 923.40 510.30 918.00 508.90 C 913.70 507.80 902.80 504.80 902.80 504.80 L 912.00 514.20 L 912.00 514.20 Z" fill="url(#SVGID_80_)" fill-rule="evenodd" group-id="1,2,13" node-id="1150" stroke="none" target-height="73.5" target-width="51.600037" target-x="902.8" target-y="504.8"></path><path d="M 869.30 517.70 C 881.90 508.70 897.50 507.40 909.50 514.40 C 921.10 521.10 929.00 535.30 930.20 551.40 C 930.70 558.70 930.00 566.00 928.10 573.00 L 932.90 574.30 C 939.10 550.90 932.90 525.20 917.30 512.40 C 913.00 508.90 908.10 506.30 902.70 504.90 C 888.90 501.30 873.10 506.30 860.90 517.80 L 869.30 517.70 Z" fill="url(#SVGID_81_)" fill-rule="evenodd" group-id="1,2,13" node-id="1152" stroke="none" target-height="73" target-width="78.19995" target-x="860.9" target-y="501.3"></path><path d="M 941.00 570.90 C 929.10 567.70 916.00 578.00 911.80 593.70 C 907.60 609.50 913.80 624.90 925.70 628.10 C 937.60 631.30 950.70 621.00 954.90 605.30 C 959.10 589.60 952.90 574.10 941.00 570.90 Z" fill="url(#SVGID_82_)" fill-rule="evenodd" group-id="1,2,13" node-id="1154" stroke="none" target-height="63.599976" target-width="51.5" target-x="907.6" target-y="567.7"></path><path d="M 945.10 579.00 C 936.40 576.70 926.70 584.70 923.40 596.90 C 920.10 609.10 924.50 620.90 933.20 623.30 C 941.90 625.70 951.60 617.60 954.90 605.40 C 958.20 593.10 953.70 581.30 945.10 579.00 Z" fill="url(#SVGID_83_)" fill-rule="evenodd" group-id="1,2,13" node-id="1156" stroke="none" target-height="49" target-width="38.100037" target-x="920.1" target-y="576.7"></path></g></g></g></svg>